<svg width="326" height="356" viewBox="0 0 326 356" fill="none" xmlns="http://www.w3.org/2000/svg">
<rect x="0.5" y="0.5" width="325" height="355" rx="9.5" fill="#FFB200" fill-opacity="0.84" stroke="black"/>
<path d="M242.993 0H36.375V327.359H242.993V0Z" fill="#282828"/>
<path d="M244.259 83.6628H50.1387V184.118H244.259V83.6628Z" fill="#2F2E41"/>
<path d="M320.491 85.8658H128.453V181.474H320.491V85.8658Z" fill="#282828"/>
<path d="M183.128 99.9647H140.222V116.267H183.128V99.9647Z" fill="#FF4141"/>
<path d="M308.723 128.603H150.844V133.009H308.723V128.603Z" fill="#FF4141"/>
<path d="M308.723 140.059H150.844V144.464H308.723V140.059Z" fill="#FF4141"/>
<path d="M308.723 151.514H150.844V155.92H308.723V151.514Z" fill="#FF4141"/>
<path d="M308.723 162.969H150.844V167.375H308.723V162.969Z" fill="#FF4141"/>
<path d="M94.2949 7H51.3884V23.3019H94.2949V7Z" fill="#F2F2F2"/>
<path d="M219.89 35.6384H62.011V40.0443H219.89V35.6384Z" fill="#F2F2F2"/>
<path d="M219.89 47.0938H62.011V51.4997H219.89V47.0938Z" fill="#F2F2F2"/>
<path d="M219.89 58.5492H62.011V62.9551H219.89V58.5492Z" fill="#F2F2F2"/>
<path d="M219.89 70.0045H62.011V74.4104H219.89V70.0045Z" fill="#F2F2F2"/>
<path d="M95.9612 194.251H53.0547V210.553H95.9612V194.251Z" fill="#F2F2F2"/>
<path d="M221.556 222.89H63.677V227.296H221.556V222.89Z" fill="#F2F2F2"/>
<path d="M221.556 234.345H63.677V238.751H221.556V234.345Z" fill="#F2F2F2"/>
<path d="M221.556 245.8H63.677V250.206H221.556V245.8Z" fill="#F2F2F2"/>
<path d="M221.556 257.256H63.677V261.662H221.556V257.256Z" fill="#F2F2F2"/>
<path d="M0.5 297C0.5 291.753 4.7533 287.5 10 287.5H316C321.247 287.5 325.5 291.753 325.5 297V346C325.5 351.247 321.247 355.5 316 355.5H10C4.7533 355.5 0.5 351.247 0.5 346V297Z" fill="white" stroke="black"/>
<path d="M78.8949 333.384C76.0575 333.384 73.8495 332.424 72.2709 330.504C70.6922 328.563 69.9029 325.715 69.9029 321.96C69.9029 318.205 70.6922 315.325 72.2709 313.32C73.8495 311.293 76.0575 310.28 78.8949 310.28C80.7722 310.28 82.3402 310.707 83.5989 311.56C84.8789 312.413 85.8709 313.619 86.5749 315.176L84.3989 316.488C83.9509 315.336 83.2682 314.419 82.3509 313.736C81.4335 313.032 80.2815 312.68 78.8949 312.68C77.9349 312.68 77.0709 312.861 76.3029 313.224C75.5562 313.587 74.9162 314.109 74.3829 314.792C73.8709 315.453 73.4762 316.253 73.1989 317.192C72.9215 318.109 72.7829 319.144 72.7829 320.296V323.624C72.7829 325.928 73.3162 327.731 74.3829 329.032C75.4495 330.333 76.9535 330.984 78.8949 330.984C80.3242 330.984 81.5189 330.621 82.4789 329.896C83.4389 329.149 84.1429 328.168 84.5909 326.952L86.7349 328.296C86.0309 329.875 85.0175 331.123 83.6949 332.04C82.3722 332.936 80.7722 333.384 78.8949 333.384ZM93.3619 333C92.4659 333 91.7832 332.755 91.3139 332.264C90.8659 331.752 90.6419 331.112 90.6419 330.344V309.32H93.2019V330.76H95.6339V333H93.3619ZM105.601 333.384C104.491 333.384 103.478 333.181 102.561 332.776C101.643 332.371 100.854 331.795 100.193 331.048C99.5526 330.28 99.0513 329.373 98.6886 328.328C98.326 327.261 98.1446 326.067 98.1446 324.744C98.1446 323.443 98.326 322.259 98.6886 321.192C99.0513 320.125 99.5526 319.219 100.193 318.472C100.854 317.704 101.643 317.117 102.561 316.712C103.478 316.307 104.491 316.104 105.601 316.104C106.71 316.104 107.713 316.307 108.609 316.712C109.526 317.117 110.315 317.704 110.977 318.472C111.638 319.219 112.15 320.125 112.513 321.192C112.875 322.259 113.057 323.443 113.057 324.744C113.057 326.067 112.875 327.261 112.513 328.328C112.15 329.373 111.638 330.28 110.977 331.048C110.315 331.795 109.526 332.371 108.609 332.776C107.713 333.181 106.71 333.384 105.601 333.384ZM105.601 331.112C106.987 331.112 108.118 330.685 108.993 329.832C109.867 328.979 110.305 327.677 110.305 325.928V323.56C110.305 321.811 109.867 320.509 108.993 319.656C108.118 318.803 106.987 318.376 105.601 318.376C104.214 318.376 103.083 318.803 102.209 319.656C101.334 320.509 100.897 321.811 100.897 323.56V325.928C100.897 327.677 101.334 328.979 102.209 329.832C103.083 330.685 104.214 331.112 105.601 331.112ZM117.267 333V316.488H119.827V319.176H119.955C120.36 318.237 120.926 317.491 121.651 316.936C122.398 316.381 123.39 316.104 124.627 316.104C126.334 316.104 127.678 316.659 128.659 317.768C129.662 318.856 130.163 320.403 130.163 322.408V333H127.603V322.856C127.603 319.891 126.355 318.408 123.859 318.408C123.347 318.408 122.846 318.472 122.355 318.6C121.886 318.728 121.459 318.92 121.075 319.176C120.691 319.432 120.382 319.763 120.147 320.168C119.934 320.552 119.827 321.011 119.827 321.544V333H117.267ZM136.734 312.616C136.18 312.616 135.774 312.488 135.518 312.232C135.284 311.955 135.166 311.603 135.166 311.176V310.76C135.166 310.333 135.284 309.992 135.518 309.736C135.774 309.459 136.18 309.32 136.734 309.32C137.289 309.32 137.684 309.459 137.918 309.736C138.174 309.992 138.302 310.333 138.302 310.76V311.176C138.302 311.603 138.174 311.955 137.918 312.232C137.684 312.488 137.289 312.616 136.734 312.616ZM135.454 316.488H138.014V333H135.454V316.488ZM143.454 333V316.488H146.014V319.176H146.142C146.548 318.237 147.113 317.491 147.838 316.936C148.585 316.381 149.577 316.104 150.814 316.104C152.521 316.104 153.865 316.659 154.846 317.768C155.849 318.856 156.35 320.403 156.35 322.408V333H153.79V322.856C153.79 319.891 152.542 318.408 150.046 318.408C149.534 318.408 149.033 318.472 148.542 318.6C148.073 318.728 147.646 318.92 147.262 319.176C146.878 319.432 146.569 319.763 146.334 320.168C146.121 320.552 146.014 321.011 146.014 321.544V333H143.454ZM175.562 334.824C175.562 336.531 174.89 337.779 173.546 338.568C172.223 339.379 170.229 339.784 167.562 339.784C164.981 339.784 163.125 339.432 161.994 338.728C160.863 338.024 160.298 337.021 160.298 335.72C160.298 334.824 160.533 334.12 161.002 333.608C161.471 333.117 162.111 332.755 162.922 332.52V332.168C161.941 331.699 161.45 330.931 161.45 329.864C161.45 329.032 161.717 328.403 162.25 327.976C162.783 327.528 163.466 327.197 164.298 326.984V326.856C163.317 326.387 162.549 325.715 161.994 324.84C161.461 323.965 161.194 322.952 161.194 321.8C161.194 320.968 161.343 320.2 161.642 319.496C161.941 318.792 162.357 318.195 162.89 317.704C163.445 317.192 164.095 316.797 164.842 316.52C165.61 316.243 166.463 316.104 167.402 316.104C168.575 316.104 169.621 316.317 170.538 316.744V316.456C170.538 315.816 170.687 315.293 170.986 314.888C171.285 314.461 171.775 314.248 172.458 314.248H174.922V316.488H171.786V317.544C172.383 318.056 172.842 318.675 173.162 319.4C173.503 320.104 173.674 320.904 173.674 321.8C173.674 322.632 173.525 323.4 173.226 324.104C172.927 324.808 172.501 325.416 171.946 325.928C171.413 326.419 170.762 326.803 169.994 327.08C169.226 327.357 168.373 327.496 167.434 327.496C166.901 327.496 166.367 327.443 165.834 327.336C165.279 327.485 164.778 327.709 164.33 328.008C163.882 328.285 163.658 328.68 163.658 329.192C163.658 329.683 163.893 330.013 164.362 330.184C164.831 330.355 165.439 330.44 166.186 330.44H169.706C171.754 330.44 173.237 330.835 174.154 331.624C175.093 332.392 175.562 333.459 175.562 334.824ZM173.162 335.016C173.162 334.355 172.906 333.821 172.394 333.416C171.903 333.032 171.018 332.84 169.738 332.84H164.234C163.21 333.309 162.698 334.056 162.698 335.08C162.698 335.805 162.965 336.424 163.498 336.936C164.053 337.448 164.981 337.704 166.282 337.704H168.65C170.079 337.704 171.189 337.48 171.978 337.032C172.767 336.584 173.162 335.912 173.162 335.016ZM167.434 325.448C168.522 325.448 169.386 325.192 170.026 324.68C170.666 324.147 170.986 323.336 170.986 322.248V321.352C170.986 320.264 170.666 319.464 170.026 318.952C169.386 318.419 168.522 318.152 167.434 318.152C166.346 318.152 165.482 318.419 164.842 318.952C164.202 319.464 163.882 320.264 163.882 321.352V322.248C163.882 323.336 164.202 324.147 164.842 324.68C165.482 325.192 166.346 325.448 167.434 325.448ZM189.471 333L184.031 310.664H186.879L189.279 321.416L191.135 329.768H191.199L193.279 321.416L196.095 310.664H199.167L201.887 321.416L203.967 329.736H204.063L205.983 321.416L208.511 310.664H211.263L205.535 333H202.559L199.647 321.864L197.599 313.672H197.535L195.423 321.864L192.447 333H189.471ZM220.382 333.384C219.273 333.384 218.259 333.181 217.342 332.776C216.425 332.371 215.635 331.795 214.974 331.048C214.334 330.28 213.833 329.373 213.47 328.328C213.107 327.261 212.926 326.067 212.926 324.744C212.926 323.443 213.107 322.259 213.47 321.192C213.833 320.125 214.334 319.219 214.974 318.472C215.635 317.704 216.425 317.117 217.342 316.712C218.259 316.307 219.273 316.104 220.382 316.104C221.491 316.104 222.494 316.307 223.39 316.712C224.307 317.117 225.097 317.704 225.758 318.472C226.419 319.219 226.931 320.125 227.294 321.192C227.657 322.259 227.838 323.443 227.838 324.744C227.838 326.067 227.657 327.261 227.294 328.328C226.931 329.373 226.419 330.28 225.758 331.048C225.097 331.795 224.307 332.371 223.39 332.776C222.494 333.181 221.491 333.384 220.382 333.384ZM220.382 331.112C221.769 331.112 222.899 330.685 223.774 329.832C224.649 328.979 225.086 327.677 225.086 325.928V323.56C225.086 321.811 224.649 320.509 223.774 319.656C222.899 318.803 221.769 318.376 220.382 318.376C218.995 318.376 217.865 318.803 216.99 319.656C216.115 320.509 215.678 321.811 215.678 323.56V325.928C215.678 327.677 216.115 328.979 216.99 329.832C217.865 330.685 218.995 331.112 220.382 331.112ZM232.048 333V316.488H234.608V319.528H234.768C235.067 318.739 235.6 318.035 236.368 317.416C237.136 316.797 238.192 316.488 239.536 316.488H240.528V319.048H239.024C237.637 319.048 236.549 319.315 235.76 319.848C234.992 320.36 234.608 321.011 234.608 321.8V333H232.048ZM243.798 309.32H246.358V324.328H246.486L249.014 321.512L253.686 316.488H256.79L250.678 323.016L257.398 333H254.294L248.822 324.584L246.358 327.112V333H243.798V309.32Z" fill="black"/>
</svg>
