<svg width="326" height="356" viewBox="0 0 326 356" fill="none" xmlns="http://www.w3.org/2000/svg">
<rect x="0.5" y="0.5" width="325" height="355" rx="9.5" fill="#003399" stroke="black"/>
<path d="M33.5 286.5V0.5H296.5V286.5H33.5Z" fill="white" stroke="black"/>
<path d="M285.384 20.1833H105.491C105.107 20.1324 104.755 19.9429 104.499 19.6501C104.244 19.3572 104.103 18.9811 104.103 18.5916C104.103 18.2022 104.244 17.826 104.499 17.5332C104.755 17.2404 105.107 17.0509 105.491 17H285.384C285.768 17.0509 286.12 17.2404 286.376 17.5332C286.631 17.826 286.772 18.2022 286.772 18.5916C286.772 18.9811 286.631 19.3572 286.376 19.6501C286.12 19.9429 285.768 20.1324 285.384 20.1833Z" fill="#282828"/>
<path d="M160.736 37.6913H46.3597C45.9757 37.6404 45.6231 37.4509 45.3678 37.1581C45.1124 36.8653 44.9717 36.4891 44.9717 36.0997C44.9717 35.7102 45.1124 35.3341 45.3678 35.0413C45.6231 34.7485 45.9757 34.5589 46.3597 34.5081H160.736C161.12 34.5589 161.472 34.7485 161.728 35.0413C161.983 35.3341 162.124 35.7102 162.124 36.0997C162.124 36.4891 161.983 36.8653 161.728 37.1581C161.472 37.4509 161.12 37.6404 160.736 37.6913Z" fill="#282828"/>
<path d="M285.384 38.0097H171.008C170.624 37.9588 170.271 37.7693 170.016 37.4764C169.76 37.1836 169.62 36.8075 169.62 36.418C169.62 36.0286 169.76 35.6524 170.016 35.3596C170.271 35.0668 170.624 34.8773 171.008 34.8264H285.384C285.768 34.8773 286.12 35.0668 286.376 35.3596C286.631 35.6524 286.772 36.0286 286.772 36.418C286.772 36.8075 286.631 37.1836 286.376 37.4764C286.12 37.7693 285.768 37.9588 285.384 38.0097H285.384Z" fill="#282828"/>
<path d="M161.014 55.1991H46.6375C46.2535 55.1482 45.901 54.9587 45.6457 54.6659C45.3903 54.3731 45.2495 53.9969 45.2495 53.6075C45.2495 53.2181 45.3903 52.8419 45.6457 52.5491C45.901 52.2563 46.2535 52.0668 46.6375 52.0159H161.014C161.398 52.0668 161.75 52.2563 162.006 52.5491C162.261 52.8419 162.402 53.2181 162.402 53.6075C162.402 53.9969 162.261 54.3731 162.006 54.6659C161.75 54.9587 161.398 55.1482 161.014 55.1991Z" fill="#282828"/>
<path d="M161.291 72.7072H46.9149C46.5309 72.6563 46.1784 72.4668 45.923 72.174C45.6677 71.8812 45.5269 71.505 45.5269 71.1156C45.5269 70.7261 45.6677 70.35 45.923 70.0572C46.1784 69.7643 46.5309 69.5748 46.9149 69.5239H161.291C161.675 69.5748 162.028 69.7643 162.283 70.0572C162.538 70.35 162.679 70.7261 162.679 71.1156C162.679 71.505 162.538 71.8812 162.283 72.174C162.028 72.4668 161.675 72.6563 161.291 72.7072Z" fill="#282828"/>
<path d="M213.205 55.1991H180.446C180.062 55.1482 179.71 54.9587 179.454 54.6659C179.199 54.3731 179.058 53.9969 179.058 53.6075C179.058 53.2181 179.199 52.8419 179.454 52.5491C179.71 52.2563 180.062 52.0668 180.446 52.0159H213.205C213.589 52.0668 213.941 52.2563 214.196 52.5491C214.452 52.8419 214.593 53.2181 214.593 53.6075C214.593 53.9969 214.452 54.3731 214.196 54.6659C213.941 54.9587 213.589 55.1482 213.205 55.1991Z" fill="#282828"/>
<path d="M213.205 72.3889H180.446C180.062 72.338 179.71 72.1484 179.454 71.8556C179.199 71.5628 179.058 71.1867 179.058 70.7972C179.058 70.4078 179.199 70.0316 179.454 69.7388C179.71 69.446 180.062 69.2565 180.446 69.2056H213.205C213.589 69.2565 213.941 69.446 214.196 69.7388C214.452 70.0316 214.593 70.4078 214.593 70.7972C214.593 71.1867 214.452 71.5628 214.196 71.8556C213.941 72.1484 213.589 72.338 213.205 72.3889Z" fill="#282828"/>
<path d="M268.172 72.3889H235.413C235.029 72.338 234.677 72.1484 234.422 71.8556C234.166 71.5628 234.025 71.1867 234.025 70.7972C234.025 70.4078 234.166 70.0316 234.422 69.7388C234.677 69.446 235.029 69.2565 235.413 69.2056H268.172C268.556 69.2565 268.908 69.446 269.164 69.7388C269.419 70.0316 269.56 70.4078 269.56 70.7972C269.56 71.1867 269.419 71.5628 269.164 71.8556C268.908 72.1484 268.556 72.338 268.172 72.3889Z" fill="#282828"/>
<path d="M78.2852 20.1833H45.527C45.143 20.1324 44.7904 19.9429 44.5351 19.6501C44.2797 19.3572 44.1389 18.9811 44.1389 18.5916C44.1389 18.2022 44.2797 17.826 44.5351 17.5332C44.7904 17.2404 45.143 17.0509 45.527 17H78.2852C78.6693 17.0509 79.0217 17.2404 79.2771 17.5332C79.5325 17.826 79.6733 18.2022 79.6733 18.5916C79.6733 18.9811 79.5325 19.3572 79.2771 19.6501C79.0217 19.9429 78.6693 20.1324 78.2852 20.1833Z" fill="#282828"/>
<path d="M160.319 220.927H45.9432C45.5592 220.877 45.2067 220.687 44.9513 220.394C44.696 220.101 44.5552 219.725 44.5552 219.336C44.5552 218.946 44.696 218.57 44.9513 218.277C45.2067 217.985 45.5592 217.795 45.9432 217.744H160.319C160.703 217.795 161.056 217.985 161.311 218.277C161.567 218.57 161.707 218.946 161.707 219.336C161.707 219.725 161.567 220.101 161.311 220.394C161.056 220.687 160.703 220.877 160.319 220.927H160.319Z" fill="#282828"/>
<path d="M159.764 255.943H45.388C45.004 255.892 44.6515 255.703 44.3962 255.41C44.1408 255.117 44 254.741 44 254.352C44 253.962 44.1408 253.586 44.3962 253.293C44.6515 253 45.004 252.811 45.388 252.76H159.764C160.148 252.811 160.501 253 160.756 253.293C161.011 253.586 161.152 253.962 161.152 254.352C161.152 254.741 161.011 255.117 160.756 255.41C160.501 255.703 160.148 255.892 159.764 255.943H159.764Z" fill="#282828"/>
<path d="M160.042 273.451H45.6659C45.2819 273.4 44.9294 273.211 44.674 272.918C44.4186 272.625 44.2778 272.249 44.2778 271.859C44.2778 271.47 44.4186 271.094 44.674 270.801C44.9294 270.508 45.2819 270.319 45.6659 270.268H160.042C160.426 270.319 160.779 270.508 161.034 270.801C161.289 271.094 161.43 271.47 161.43 271.859C161.43 272.249 161.289 272.625 161.034 272.918C160.779 273.211 160.426 273.4 160.042 273.451H160.042Z" fill="#282828"/>
<path d="M208.902 256.262H176.143C175.759 256.211 175.407 256.021 175.152 255.728C174.896 255.436 174.755 255.059 174.755 254.67C174.755 254.281 174.896 253.904 175.152 253.612C175.407 253.319 175.759 253.129 176.143 253.078H208.902C209.286 253.129 209.638 253.319 209.894 253.612C210.149 253.904 210.29 254.281 210.29 254.67C210.29 255.059 210.149 255.436 209.894 255.728C209.638 256.021 209.286 256.211 208.902 256.262Z" fill="#282828"/>
<path d="M208.902 273.451H176.143C175.759 273.4 175.407 273.211 175.152 272.918C174.896 272.625 174.755 272.249 174.755 271.859C174.755 271.47 174.896 271.094 175.152 270.801C175.407 270.508 175.759 270.319 176.143 270.268H208.902C209.286 270.319 209.638 270.508 209.894 270.801C210.149 271.094 210.29 271.47 210.29 271.859C210.29 272.249 210.149 272.625 209.894 272.918C209.638 273.211 209.286 273.4 208.902 273.451Z" fill="#282828"/>
<path d="M263.869 256.262H231.11C230.726 256.211 230.374 256.021 230.119 255.728C229.863 255.436 229.722 255.059 229.722 254.67C229.722 254.281 229.863 253.904 230.119 253.612C230.374 253.319 230.726 253.129 231.11 253.078H263.869C264.253 253.129 264.605 253.319 264.861 253.612C265.116 253.904 265.257 254.281 265.257 254.67C265.257 255.059 265.116 255.436 264.861 255.728C264.605 256.021 264.253 256.211 263.869 256.262Z" fill="#282828"/>
<path d="M285.523 238.435H105.63C105.246 238.384 104.893 238.195 104.638 237.902C104.383 237.609 104.242 237.233 104.242 236.844C104.242 236.454 104.383 236.078 104.638 235.785C104.893 235.492 105.246 235.303 105.63 235.252H285.523C285.907 235.303 286.259 235.492 286.514 235.785C286.77 236.078 286.911 236.454 286.911 236.844C286.911 237.233 286.77 237.609 286.514 237.902C286.259 238.195 285.907 238.384 285.523 238.435Z" fill="#282828"/>
<path d="M78.4241 238.435H45.6659C45.2819 238.384 44.9294 238.195 44.674 237.902C44.4186 237.609 44.2778 237.233 44.2778 236.844C44.2778 236.454 44.4186 236.078 44.674 235.785C44.9294 235.492 45.2819 235.303 45.6659 235.252H78.4241C78.8081 235.303 79.1606 235.492 79.416 235.785C79.6714 236.078 79.8121 236.454 79.8121 236.844C79.8121 237.233 79.6714 237.609 79.416 237.902C79.1606 238.195 78.8081 238.384 78.4241 238.435Z" fill="#282828"/>
<path d="M90.4184 101L46 145.103L90.4184 189.204L100.412 179.156L66.8208 145.381L100.689 111.328L90.4184 101Z" fill="#E6E6E6"/>
<path d="M242.272 101L286.689 145.103L242.272 189.204L232.278 179.156L265.869 145.381L232 111.328L242.272 101Z" fill="#E6E6E6"/>
<path d="M66.4663 145.029L66.1156 145.381L66.4663 145.734L99.7072 179.156L90.4162 188.498L46.7096 145.103L90.4162 101.707L99.9842 111.328L66.4663 145.029Z" fill="#003399" stroke="black"/>
<path d="M266.223 145.734L266.574 145.381L266.223 145.029L232.705 111.328L242.274 101.707L285.98 145.103L242.274 188.498L232.983 179.156L266.223 145.734Z" fill="#003399" stroke="black"/>
<path d="M0.5 297C0.5 291.753 4.7533 287.5 10 287.5H316C321.247 287.5 325.5 291.753 325.5 297V346C325.5 351.247 321.247 355.5 316 355.5H10C4.7533 355.5 0.5 351.247 0.5 346V297Z" fill="white" stroke="black"/>
<path d="M126.959 146.84H112.991V161H106.655V127.496H112.991V141.224H126.959V127.496H133.295V161H126.959V146.84ZM154.307 133.112V161H147.971V133.112H138.467V127.496H163.811V133.112H154.307ZM194.295 136.952H194.103L191.51 142.28L184.647 154.952L177.783 142.28L175.191 136.952H174.999V161H168.999V127.496H176.151L184.743 143.864H184.935L193.431 127.496H200.295V161H194.295V136.952ZM208.186 161V127.496H214.522V155.384H227.722V161H208.186Z" fill="black"/>
<path d="M11.6269 333L6.18688 310.664H9.03488L11.4349 321.416L13.2909 329.768H13.3549L15.4349 321.416L18.2509 310.664H21.3229L24.0429 321.416L26.1229 329.736H26.2189L28.1389 321.416L30.6669 310.664H33.4189L27.6909 333H24.7149L21.8029 321.864L19.7549 313.672H19.6909L17.5789 321.864L14.6029 333H11.6269ZM42.5061 333.384C41.3755 333.384 40.3515 333.181 39.4341 332.776C38.5381 332.371 37.7595 331.795 37.0981 331.048C36.4581 330.28 35.9568 329.373 35.5941 328.328C35.2528 327.261 35.0821 326.067 35.0821 324.744C35.0821 323.443 35.2528 322.259 35.5941 321.192C35.9568 320.125 36.4581 319.219 37.0981 318.472C37.7595 317.704 38.5381 317.117 39.4341 316.712C40.3515 316.307 41.3755 316.104 42.5061 316.104C43.6155 316.104 44.6075 316.307 45.4821 316.712C46.3568 317.117 47.1035 317.683 47.7221 318.408C48.3408 319.112 48.8101 319.955 49.1301 320.936C49.4715 321.917 49.6421 322.995 49.6421 324.168V325.384H37.7701V326.152C37.7701 326.856 37.8768 327.517 38.0901 328.136C38.3248 328.733 38.6448 329.256 39.0501 329.704C39.4768 330.152 39.9888 330.504 40.5861 330.76C41.2048 331.016 41.8981 331.144 42.6661 331.144C43.7115 331.144 44.6181 330.899 45.3861 330.408C46.1755 329.917 46.7835 329.213 47.2101 328.296L49.0341 329.608C48.5008 330.739 47.6688 331.656 46.5381 332.36C45.4075 333.043 44.0635 333.384 42.5061 333.384ZM42.5061 318.248C41.8021 318.248 41.1621 318.376 40.5861 318.632C40.0101 318.867 39.5088 319.208 39.0821 319.656C38.6768 320.104 38.3568 320.637 38.1221 321.256C37.8875 321.853 37.7701 322.515 37.7701 323.24V323.464H46.8901V323.112C46.8901 321.64 46.4848 320.467 45.6741 319.592C44.8848 318.696 43.8288 318.248 42.5061 318.248ZM53.8606 309.32H56.4206V319.176H56.5486C56.9753 318.131 57.594 317.363 58.4046 316.872C59.2366 316.36 60.2286 316.104 61.3806 316.104C62.4046 316.104 63.3326 316.307 64.1646 316.712C64.9966 317.117 65.7006 317.693 66.2766 318.44C66.874 319.187 67.322 320.093 67.6206 321.16C67.9406 322.227 68.1006 323.421 68.1006 324.744C68.1006 326.067 67.9406 327.261 67.6206 328.328C67.322 329.395 66.874 330.301 66.2766 331.048C65.7006 331.795 64.9966 332.371 64.1646 332.776C63.3326 333.181 62.4046 333.384 61.3806 333.384C59.1406 333.384 57.53 332.36 56.5486 330.312H56.4206V333H53.8606V309.32ZM60.6766 331.08C62.1273 331.08 63.2686 330.632 64.1006 329.736C64.9326 328.819 65.3486 327.624 65.3486 326.152V323.336C65.3486 321.864 64.9326 320.68 64.1006 319.784C63.2686 318.867 62.1273 318.408 60.6766 318.408C60.1006 318.408 59.546 318.493 59.0126 318.664C58.5006 318.813 58.0526 319.027 57.6686 319.304C57.2846 319.581 56.9753 319.923 56.7406 320.328C56.5273 320.712 56.4206 321.128 56.4206 321.576V327.72C56.4206 328.253 56.5273 328.733 56.7406 329.16C56.9753 329.565 57.2846 329.917 57.6686 330.216C58.0526 330.493 58.5006 330.707 59.0126 330.856C59.546 331.005 60.1006 331.08 60.6766 331.08ZM77.3831 333.384C75.8471 333.384 74.5565 333.096 73.5111 332.52C72.4871 331.923 71.6018 331.133 70.8551 330.152L72.6791 328.68C73.3191 329.491 74.0338 330.12 74.8231 330.568C75.6125 330.995 76.5298 331.208 77.5751 331.208C78.6631 331.208 79.5058 330.973 80.1031 330.504C80.7218 330.035 81.0311 329.373 81.0311 328.52C81.0311 327.88 80.8178 327.336 80.3911 326.888C79.9858 326.419 79.2391 326.099 78.1511 325.928L76.8391 325.736C76.0711 325.629 75.3671 325.469 74.7271 325.256C74.0871 325.021 73.5218 324.723 73.0311 324.36C72.5618 323.976 72.1885 323.507 71.9111 322.952C71.6551 322.397 71.5271 321.736 71.5271 320.968C71.5271 320.157 71.6765 319.453 71.9751 318.856C72.2738 318.237 72.6791 317.725 73.1911 317.32C73.7245 316.915 74.3538 316.616 75.0791 316.424C75.8045 316.211 76.5831 316.104 77.4151 316.104C78.7591 316.104 79.8791 316.339 80.7751 316.808C81.6925 317.277 82.4925 317.928 83.1751 318.76L81.4791 320.296C81.1165 319.784 80.5831 319.325 79.8791 318.92C79.1751 318.493 78.2898 318.28 77.2231 318.28C76.1565 318.28 75.3458 318.515 74.7911 318.984C74.2578 319.432 73.9911 320.051 73.9911 320.84C73.9911 321.651 74.2578 322.237 74.7911 322.6C75.3458 322.963 76.1351 323.229 77.1591 323.4L78.4391 323.592C80.2738 323.869 81.5751 324.403 82.3431 325.192C83.1111 325.96 83.4951 326.973 83.4951 328.232C83.4951 329.832 82.9511 331.091 81.8631 332.008C80.7751 332.925 79.2818 333.384 77.3831 333.384ZM89.2969 312.616C88.7422 312.616 88.3369 312.488 88.0809 312.232C87.8462 311.955 87.7289 311.603 87.7289 311.176V310.76C87.7289 310.333 87.8462 309.992 88.0809 309.736C88.3369 309.459 88.7422 309.32 89.2969 309.32C89.8515 309.32 90.2462 309.459 90.4809 309.736C90.7369 309.992 90.8649 310.333 90.8649 310.76V311.176C90.8649 311.603 90.7369 311.955 90.4809 312.232C90.2462 312.488 89.8515 312.616 89.2969 312.616ZM88.0169 316.488H90.5769V333H88.0169V316.488ZM99.6649 333C98.7689 333 98.0862 332.755 97.6169 332.264C97.1689 331.752 96.9449 331.091 96.9449 330.28V318.728H94.2249V316.488H95.7609C96.3155 316.488 96.6889 316.381 96.8809 316.168C97.0942 315.933 97.2009 315.539 97.2009 314.984V311.912H99.5049V316.488H103.121V318.728H99.5049V330.76H102.865V333H99.6649ZM113.319 333.384C112.188 333.384 111.164 333.181 110.247 332.776C109.351 332.371 108.572 331.795 107.911 331.048C107.271 330.28 106.769 329.373 106.407 328.328C106.065 327.261 105.895 326.067 105.895 324.744C105.895 323.443 106.065 322.259 106.407 321.192C106.769 320.125 107.271 319.219 107.911 318.472C108.572 317.704 109.351 317.117 110.247 316.712C111.164 316.307 112.188 316.104 113.319 316.104C114.428 316.104 115.42 316.307 116.295 316.712C117.169 317.117 117.916 317.683 118.535 318.408C119.153 319.112 119.623 319.955 119.943 320.936C120.284 321.917 120.455 322.995 120.455 324.168V325.384H108.583V326.152C108.583 326.856 108.689 327.517 108.903 328.136C109.137 328.733 109.457 329.256 109.863 329.704C110.289 330.152 110.801 330.504 111.399 330.76C112.017 331.016 112.711 331.144 113.479 331.144C114.524 331.144 115.431 330.899 116.199 330.408C116.988 329.917 117.596 329.213 118.023 328.296L119.847 329.608C119.313 330.739 118.481 331.656 117.351 332.36C116.22 333.043 114.876 333.384 113.319 333.384ZM113.319 318.248C112.615 318.248 111.975 318.376 111.399 318.632C110.823 318.867 110.321 319.208 109.895 319.656C109.489 320.104 109.169 320.637 108.935 321.256C108.7 321.853 108.583 322.515 108.583 323.24V323.464H117.703V323.112C117.703 321.64 117.297 320.467 116.487 319.592C115.697 318.696 114.641 318.248 113.319 318.248ZM132.492 310.664H139.98C141.366 310.664 142.625 310.899 143.756 311.368C144.886 311.837 145.846 312.541 146.636 313.48C147.446 314.397 148.065 315.56 148.492 316.968C148.918 318.355 149.132 319.976 149.132 321.832C149.132 323.688 148.918 325.32 148.492 326.728C148.065 328.115 147.446 329.277 146.636 330.216C145.846 331.133 144.886 331.827 143.756 332.296C142.625 332.765 141.366 333 139.98 333H132.492V310.664ZM139.98 330.632C140.897 330.632 141.74 330.483 142.508 330.184C143.276 329.864 143.937 329.405 144.492 328.808C145.046 328.211 145.473 327.485 145.772 326.632C146.092 325.757 146.252 324.765 146.252 323.656V320.008C146.252 318.899 146.092 317.917 145.772 317.064C145.473 316.189 145.046 315.453 144.492 314.856C143.937 314.259 143.276 313.811 142.508 313.512C141.74 313.192 140.897 313.032 139.98 313.032H135.18V330.632H139.98ZM159.912 333.384C158.782 333.384 157.758 333.181 156.84 332.776C155.944 332.371 155.166 331.795 154.504 331.048C153.864 330.28 153.363 329.373 153 328.328C152.659 327.261 152.488 326.067 152.488 324.744C152.488 323.443 152.659 322.259 153 321.192C153.363 320.125 153.864 319.219 154.504 318.472C155.166 317.704 155.944 317.117 156.84 316.712C157.758 316.307 158.782 316.104 159.912 316.104C161.022 316.104 162.014 316.307 162.888 316.712C163.763 317.117 164.51 317.683 165.128 318.408C165.747 319.112 166.216 319.955 166.536 320.936C166.878 321.917 167.048 322.995 167.048 324.168V325.384H155.176V326.152C155.176 326.856 155.283 327.517 155.496 328.136C155.731 328.733 156.051 329.256 156.456 329.704C156.883 330.152 157.395 330.504 157.992 330.76C158.611 331.016 159.304 331.144 160.072 331.144C161.118 331.144 162.024 330.899 162.792 330.408C163.582 329.917 164.19 329.213 164.616 328.296L166.44 329.608C165.907 330.739 165.075 331.656 163.944 332.36C162.814 333.043 161.47 333.384 159.912 333.384ZM159.912 318.248C159.208 318.248 158.568 318.376 157.992 318.632C157.416 318.867 156.915 319.208 156.488 319.656C156.083 320.104 155.763 320.637 155.528 321.256C155.294 321.853 155.176 322.515 155.176 323.24V323.464H164.296V323.112C164.296 321.64 163.891 320.467 163.08 319.592C162.291 318.696 161.235 318.248 159.912 318.248ZM174.665 333L168.873 316.488H171.433L174.313 324.68L176.105 330.312H176.265L178.057 324.68L181.001 316.488H183.465L177.641 333H174.665ZM192.725 333.384C191.594 333.384 190.57 333.181 189.653 332.776C188.757 332.371 187.978 331.795 187.317 331.048C186.677 330.28 186.176 329.373 185.813 328.328C185.472 327.261 185.301 326.067 185.301 324.744C185.301 323.443 185.472 322.259 185.813 321.192C186.176 320.125 186.677 319.219 187.317 318.472C187.978 317.704 188.757 317.117 189.653 316.712C190.57 316.307 191.594 316.104 192.725 316.104C193.834 316.104 194.826 316.307 195.701 316.712C196.576 317.117 197.322 317.683 197.941 318.408C198.56 319.112 199.029 319.955 199.349 320.936C199.69 321.917 199.861 322.995 199.861 324.168V325.384H187.989V326.152C187.989 326.856 188.096 327.517 188.309 328.136C188.544 328.733 188.864 329.256 189.269 329.704C189.696 330.152 190.208 330.504 190.805 330.76C191.424 331.016 192.117 331.144 192.885 331.144C193.93 331.144 194.837 330.899 195.605 330.408C196.394 329.917 197.002 329.213 197.429 328.296L199.253 329.608C198.72 330.739 197.888 331.656 196.757 332.36C195.626 333.043 194.282 333.384 192.725 333.384ZM192.725 318.248C192.021 318.248 191.381 318.376 190.805 318.632C190.229 318.867 189.728 319.208 189.301 319.656C188.896 320.104 188.576 320.637 188.341 321.256C188.106 321.853 187.989 322.515 187.989 323.24V323.464H197.109V323.112C197.109 321.64 196.704 320.467 195.893 319.592C195.104 318.696 194.048 318.248 192.725 318.248ZM206.799 333C205.903 333 205.221 332.755 204.751 332.264C204.303 331.752 204.079 331.112 204.079 330.344V309.32H206.639V330.76H209.071V333H206.799ZM219.038 333.384C217.929 333.384 216.915 333.181 215.998 332.776C215.081 332.371 214.291 331.795 213.63 331.048C212.99 330.28 212.489 329.373 212.126 328.328C211.763 327.261 211.582 326.067 211.582 324.744C211.582 323.443 211.763 322.259 212.126 321.192C212.489 320.125 212.99 319.219 213.63 318.472C214.291 317.704 215.081 317.117 215.998 316.712C216.915 316.307 217.929 316.104 219.038 316.104C220.147 316.104 221.15 316.307 222.046 316.712C222.963 317.117 223.753 317.704 224.414 318.472C225.075 319.219 225.587 320.125 225.95 321.192C226.313 322.259 226.494 323.443 226.494 324.744C226.494 326.067 226.313 327.261 225.95 328.328C225.587 329.373 225.075 330.28 224.414 331.048C223.753 331.795 222.963 332.371 222.046 332.776C221.15 333.181 220.147 333.384 219.038 333.384ZM219.038 331.112C220.425 331.112 221.555 330.685 222.43 329.832C223.305 328.979 223.742 327.677 223.742 325.928V323.56C223.742 321.811 223.305 320.509 222.43 319.656C221.555 318.803 220.425 318.376 219.038 318.376C217.651 318.376 216.521 318.803 215.646 319.656C214.771 320.509 214.334 321.811 214.334 323.56V325.928C214.334 327.677 214.771 328.979 215.646 329.832C216.521 330.685 217.651 331.112 219.038 331.112ZM230.704 316.488H233.264V319.176H233.392C233.819 318.131 234.438 317.363 235.248 316.872C236.08 316.36 237.072 316.104 238.224 316.104C239.248 316.104 240.176 316.307 241.008 316.712C241.84 317.117 242.544 317.693 243.12 318.44C243.718 319.187 244.166 320.093 244.464 321.16C244.784 322.227 244.944 323.421 244.944 324.744C244.944 326.067 244.784 327.261 244.464 328.328C244.166 329.395 243.718 330.301 243.12 331.048C242.544 331.795 241.84 332.371 241.008 332.776C240.176 333.181 239.248 333.384 238.224 333.384C235.984 333.384 234.374 332.36 233.392 330.312H233.264V339.4H230.704V316.488ZM237.52 331.08C238.971 331.08 240.112 330.632 240.944 329.736C241.776 328.819 242.192 327.624 242.192 326.152V323.336C242.192 321.864 241.776 320.68 240.944 319.784C240.112 318.867 238.971 318.408 237.52 318.408C236.944 318.408 236.39 318.493 235.856 318.664C235.344 318.813 234.896 319.027 234.512 319.304C234.128 319.581 233.819 319.923 233.584 320.328C233.371 320.712 233.264 321.128 233.264 321.576V327.72C233.264 328.253 233.371 328.733 233.584 329.16C233.819 329.565 234.128 329.917 234.512 330.216C234.896 330.493 235.344 330.707 235.856 330.856C236.39 331.005 236.944 331.08 237.52 331.08ZM249.267 333V316.488H251.827V319.176H251.955C252.147 318.749 252.36 318.355 252.595 317.992C252.851 317.608 253.15 317.277 253.491 317C253.854 316.723 254.27 316.509 254.739 316.36C255.208 316.189 255.763 316.104 256.403 316.104C257.491 316.104 258.494 316.371 259.411 316.904C260.328 317.416 261.011 318.269 261.459 319.464H261.523C261.822 318.568 262.376 317.789 263.187 317.128C264.019 316.445 265.139 316.104 266.547 316.104C268.232 316.104 269.544 316.659 270.483 317.768C271.443 318.856 271.923 320.403 271.923 322.408V333H269.363V322.856C269.363 321.384 269.075 320.275 268.499 319.528C267.923 318.781 267.006 318.408 265.747 318.408C265.235 318.408 264.744 318.472 264.275 318.6C263.827 318.728 263.422 318.92 263.059 319.176C262.696 319.432 262.408 319.763 262.195 320.168C261.982 320.552 261.875 321.011 261.875 321.544V333H259.315V322.856C259.315 321.384 259.027 320.275 258.451 319.528C257.875 318.781 256.979 318.408 255.763 318.408C255.251 318.408 254.76 318.472 254.291 318.6C253.822 318.728 253.406 318.92 253.043 319.176C252.68 319.432 252.382 319.763 252.147 320.168C251.934 320.552 251.827 321.011 251.827 321.544V333H249.267ZM283.412 333.384C282.282 333.384 281.258 333.181 280.34 332.776C279.444 332.371 278.666 331.795 278.004 331.048C277.364 330.28 276.863 329.373 276.5 328.328C276.159 327.261 275.988 326.067 275.988 324.744C275.988 323.443 276.159 322.259 276.5 321.192C276.863 320.125 277.364 319.219 278.004 318.472C278.666 317.704 279.444 317.117 280.34 316.712C281.258 316.307 282.282 316.104 283.412 316.104C284.522 316.104 285.514 316.307 286.388 316.712C287.263 317.117 288.01 317.683 288.628 318.408C289.247 319.112 289.716 319.955 290.036 320.936C290.378 321.917 290.548 322.995 290.548 324.168V325.384H278.676V326.152C278.676 326.856 278.783 327.517 278.996 328.136C279.231 328.733 279.551 329.256 279.956 329.704C280.383 330.152 280.895 330.504 281.492 330.76C282.111 331.016 282.804 331.144 283.572 331.144C284.618 331.144 285.524 330.899 286.292 330.408C287.082 329.917 287.69 329.213 288.116 328.296L289.94 329.608C289.407 330.739 288.575 331.656 287.444 332.36C286.314 333.043 284.97 333.384 283.412 333.384ZM283.412 318.248C282.708 318.248 282.068 318.376 281.492 318.632C280.916 318.867 280.415 319.208 279.988 319.656C279.583 320.104 279.263 320.637 279.028 321.256C278.794 321.853 278.676 322.515 278.676 323.24V323.464H287.796V323.112C287.796 321.64 287.391 320.467 286.58 319.592C285.791 318.696 284.735 318.248 283.412 318.248ZM294.767 333V316.488H297.327V319.176H297.455C297.86 318.237 298.426 317.491 299.151 316.936C299.898 316.381 300.89 316.104 302.127 316.104C303.834 316.104 305.178 316.659 306.159 317.768C307.162 318.856 307.663 320.403 307.663 322.408V333H305.103V322.856C305.103 319.891 303.855 318.408 301.359 318.408C300.847 318.408 300.346 318.472 299.855 318.6C299.386 318.728 298.959 318.92 298.575 319.176C298.191 319.432 297.882 319.763 297.647 320.168C297.434 320.552 297.327 321.011 297.327 321.544V333H294.767ZM316.602 333C315.706 333 315.024 332.755 314.554 332.264C314.106 331.752 313.882 331.091 313.882 330.28V318.728H311.162V316.488H312.698C313.253 316.488 313.626 316.381 313.818 316.168C314.032 315.933 314.138 315.539 314.138 314.984V311.912H316.442V316.488H320.058V318.728H316.442V330.76H319.802V333H316.602Z" fill="black"/>
</svg>
