<svg width="326" height="356" viewBox="0 0 326 356" fill="none" xmlns="http://www.w3.org/2000/svg">
<rect x="0.5" y="0.5" width="325" height="355" rx="9.5" fill="#FF0000" fill-opacity="0.72" stroke="black"/>
<path d="M229 68.2019H227.479V25.0026C227.479 18.3715 224.939 12.012 220.418 7.3231C215.896 2.63421 209.763 8.36715e-06 203.369 0H115.111C111.944 -8.28584e-06 108.809 0.646694 105.884 1.90318C102.959 3.15968 100.301 5.00135 98.0618 7.32305C95.823 9.64475 94.047 12.401 92.8353 15.4345C91.6237 18.4679 91 21.7191 91 25.0025V261.997C91 265.281 91.6236 268.532 92.8353 271.565C94.047 274.599 95.8229 277.355 98.0618 279.677C100.301 281.999 102.959 283.84 105.884 285.097C108.809 286.353 111.944 287 115.111 287H203.369C209.763 287 215.896 284.366 220.417 279.677C224.939 274.988 227.479 268.629 227.479 261.997V98.9519H229L229 68.2019Z" fill="#282828"/>
<path d="M204.342 6.50488H192.821C193.351 7.85185 193.553 9.31325 193.41 10.7604C193.267 12.2075 192.783 13.5959 192 14.8032C191.218 16.0106 190.161 16.9999 188.923 17.684C187.685 18.3681 186.304 18.7259 184.901 18.726H134.339C132.936 18.7259 131.555 18.3681 130.317 17.684C129.079 16.9999 128.022 16.0106 127.239 14.8032C126.457 13.5959 125.973 12.2075 125.83 10.7604C125.687 9.31325 125.889 7.85185 126.419 6.50488H115.658C110.883 6.50488 106.303 8.47206 102.927 11.9737C99.5498 15.4753 97.6528 20.2245 97.6528 25.1765V261.824C97.6528 264.276 98.1186 266.704 99.0234 268.969C99.9283 271.234 101.255 273.293 102.927 275.026C104.598 276.76 106.583 278.136 108.768 279.074C110.952 280.012 113.294 280.495 115.658 280.495H204.342C206.706 280.495 209.047 280.012 211.232 279.074C213.417 278.136 215.401 276.76 217.073 275.026C218.745 273.293 220.072 271.234 220.977 268.969C221.881 266.704 222.347 264.276 222.347 261.824V25.1765C222.347 22.7245 221.881 20.2965 220.977 18.0312C220.072 15.7658 218.745 13.7075 217.073 11.9737C215.401 10.2398 213.417 8.86451 211.232 7.92617C209.047 6.98784 206.706 6.50488 204.342 6.50489V6.50488Z" fill="white"/>
<path d="M213.764 71.9705H106.193C105.665 71.9698 105.158 71.752 104.785 71.3647C104.411 70.9774 104.201 70.4524 104.201 69.9047V42.2335C104.201 41.6858 104.411 41.1607 104.785 40.7735C105.158 40.3862 105.665 40.1684 106.193 40.1677H213.764C214.293 40.1684 214.799 40.3862 215.172 40.7735C215.546 41.1607 215.756 41.6858 215.756 42.2335V69.9047C215.756 70.4524 215.546 70.9774 215.172 71.3647C214.799 71.752 214.293 71.9698 213.764 71.9705ZM106.193 40.994C105.876 40.9944 105.572 41.1251 105.348 41.3574C105.124 41.5898 104.998 41.9049 104.998 42.2335V69.9047C104.998 70.2333 105.124 70.5484 105.348 70.7808C105.572 71.0131 105.876 71.1438 106.193 71.1442H213.764C214.081 71.1438 214.385 71.0131 214.609 70.7808C214.833 70.5484 214.959 70.2333 214.96 69.9047V42.2335C214.959 41.9049 214.833 41.5898 214.609 41.3574C214.385 41.1251 214.081 40.9944 213.764 40.994H106.193Z" fill="#282828"/>
<path d="M213.764 181.456H106.193C105.665 181.456 105.158 181.238 104.785 180.85C104.411 180.463 104.201 179.938 104.201 179.39V128.17C104.201 127.622 104.411 127.097 104.785 126.71C105.158 126.322 105.665 126.104 106.193 126.104H213.764C214.293 126.104 214.799 126.322 215.172 126.71C215.546 127.097 215.756 127.622 215.756 128.17V179.39C215.756 179.938 215.546 180.463 215.172 180.85C214.799 181.238 214.293 181.456 213.764 181.456ZM106.193 126.93C105.876 126.93 105.572 127.061 105.348 127.293C105.124 127.526 104.998 127.841 104.998 128.17V179.39C104.998 179.719 105.124 180.034 105.348 180.267C105.572 180.499 105.876 180.63 106.193 180.63H213.764C214.081 180.63 214.385 180.499 214.609 180.267C214.833 180.034 214.959 179.719 214.96 179.39V128.17C214.959 127.841 214.833 127.526 214.609 127.293C214.385 127.061 214.081 126.93 213.764 126.93L106.193 126.93Z" fill="#282828"/>
<path d="M212.968 114.938H165.158C164.63 114.938 164.123 114.72 163.75 114.333C163.376 113.945 163.166 113.42 163.166 112.873V85.2015C163.166 84.6538 163.376 84.1288 163.75 83.7415C164.123 83.3542 164.63 83.1364 165.158 83.1357H212.968C213.496 83.1364 214.002 83.3542 214.375 83.7415C214.749 84.1288 214.959 84.6538 214.96 85.2015V112.873C214.959 113.42 214.749 113.945 214.375 114.333C214.002 114.72 213.496 114.938 212.968 114.938ZM165.158 83.962C164.841 83.9624 164.537 84.0931 164.313 84.3255C164.089 84.5578 163.963 84.8729 163.963 85.2015V112.873C163.963 113.201 164.089 113.516 164.313 113.749C164.537 113.981 164.841 114.112 165.158 114.112H212.968C213.284 114.112 213.588 113.981 213.812 113.749C214.036 113.516 214.162 113.201 214.163 112.873V85.2015C214.162 84.8729 214.036 84.5578 213.812 84.3254C213.588 84.0931 213.284 83.9624 212.968 83.962L165.158 83.962Z" fill="#282828"/>
<path d="M154.002 248.387H106.193C105.665 248.387 105.158 248.169 104.785 247.781C104.411 247.394 104.201 246.869 104.201 246.321V194.687C104.201 194.14 104.411 193.615 104.785 193.227C105.158 192.84 105.665 192.622 106.193 192.622H154.002C154.531 192.622 155.037 192.84 155.41 193.227C155.784 193.615 155.994 194.14 155.995 194.687V246.321C155.994 246.869 155.784 247.394 155.41 247.781C155.037 248.169 154.531 248.387 154.002 248.387ZM106.193 193.448C105.876 193.448 105.572 193.579 105.348 193.811C105.124 194.044 104.998 194.359 104.998 194.687V246.321C104.998 246.65 105.124 246.965 105.348 247.197C105.572 247.43 105.876 247.561 106.193 247.561H154.002C154.319 247.561 154.623 247.43 154.847 247.197C155.071 246.965 155.197 246.65 155.198 246.321V194.687C155.197 194.359 155.071 194.044 154.847 193.811C154.623 193.579 154.319 193.448 154.002 193.448H106.193Z" fill="#282828"/>
<path d="M212.968 248.387H165.158C164.63 248.387 164.123 248.169 163.75 247.781C163.376 247.394 163.166 246.869 163.166 246.321V194.687C163.166 194.14 163.376 193.615 163.75 193.227C164.123 192.84 164.63 192.622 165.158 192.622H212.968C213.496 192.622 214.002 192.84 214.375 193.227C214.749 193.615 214.959 194.14 214.96 194.687V246.321C214.959 246.869 214.749 247.394 214.375 247.781C214.002 248.169 213.496 248.387 212.968 248.387ZM165.158 193.448C164.841 193.448 164.537 193.579 164.313 193.811C164.089 194.044 163.963 194.359 163.963 194.687V246.321C163.963 246.65 164.089 246.965 164.313 247.197C164.537 247.43 164.841 247.561 165.158 247.561H212.968C213.284 247.561 213.588 247.43 213.812 247.198C214.036 246.965 214.162 246.65 214.163 246.321V194.687C214.162 194.359 214.036 194.044 213.812 193.811C213.588 193.579 213.284 193.448 212.968 193.448H165.158Z" fill="#282828"/>
<path d="M122.11 152.663C126.592 152.663 130.225 148.896 130.225 144.249C130.225 139.601 126.592 135.834 122.11 135.834C117.629 135.834 113.996 139.601 113.996 144.249C113.996 148.896 117.629 152.663 122.11 152.663Z" fill="#003399"/>
<path d="M140.851 138.639C140.493 138.639 140.149 138.786 139.895 139.049C139.642 139.312 139.499 139.669 139.499 140.041C139.499 140.413 139.642 140.77 139.895 141.033C140.149 141.296 140.493 141.444 140.851 141.444H204.609C204.967 141.443 205.31 141.295 205.563 141.032C205.816 140.769 205.958 140.413 205.958 140.041C205.958 139.67 205.816 139.314 205.563 139.051C205.31 138.788 204.967 138.64 204.609 138.639H140.851Z" fill="#003399"/>
<path d="M140.851 147.053C140.674 147.053 140.498 147.089 140.334 147.159C140.169 147.229 140.02 147.332 139.894 147.462C139.768 147.592 139.668 147.746 139.6 147.916C139.532 148.087 139.496 148.269 139.496 148.453C139.496 148.637 139.53 148.82 139.598 148.99C139.666 149.16 139.765 149.315 139.89 149.446C140.016 149.576 140.164 149.68 140.328 149.751C140.492 149.821 140.668 149.858 140.846 149.858H168.287C168.464 149.859 168.64 149.823 168.805 149.752C168.969 149.682 169.118 149.579 169.244 149.448C169.37 149.318 169.47 149.163 169.538 148.993C169.606 148.823 169.641 148.64 169.641 148.456C169.641 148.272 169.606 148.089 169.538 147.919C169.47 147.748 169.37 147.594 169.244 147.463C169.118 147.333 168.969 147.23 168.805 147.16C168.64 147.089 168.464 147.053 168.287 147.053H140.851Z" fill="#003399"/>
<path d="M115.886 160.506C114.858 160.506 114.021 161.136 114.021 161.909C114.021 162.682 114.858 163.311 115.886 163.311H203.852C204.881 163.311 205.718 162.682 205.718 161.909C205.718 161.136 204.881 160.506 203.852 160.506H115.886Z" fill="#282828"/>
<path d="M115.886 168.921C114.858 168.921 114.021 169.551 114.021 170.324C114.021 171.097 114.858 171.726 115.886 171.726H203.852C204.881 171.726 205.718 171.097 205.718 170.324C205.718 169.551 204.881 168.921 203.852 168.921H115.886Z" fill="#282828"/>
<path d="M122.907 63.4222C127.389 63.4222 131.022 59.6548 131.022 55.0074C131.022 50.36 127.389 46.5925 122.907 46.5925C118.426 46.5925 114.793 50.36 114.793 55.0074C114.793 59.6548 118.426 63.4222 122.907 63.4222Z" fill="#003399"/>
<path d="M141.648 49.3975C141.29 49.3983 140.947 49.5465 140.694 49.8094C140.441 50.0723 140.299 50.4286 140.299 50.7999C140.299 51.1713 140.441 51.5275 140.694 51.7905C140.947 52.0534 141.29 52.2015 141.648 52.2024H205.406C205.584 52.203 205.76 52.1673 205.924 52.0972C206.089 52.0272 206.238 51.9242 206.364 51.7943C206.49 51.6643 206.59 51.5098 206.659 51.3397C206.727 51.1696 206.762 50.9872 206.763 50.8029C206.763 50.6186 206.728 50.436 206.661 50.2656C206.593 50.0952 206.494 49.9403 206.368 49.8098C206.243 49.6793 206.094 49.5757 205.93 49.5049C205.765 49.4342 205.589 49.3976 205.412 49.3975C205.41 49.3975 205.408 49.3975 205.406 49.3975H141.648Z" fill="#003399"/>
<path d="M141.648 57.8125C141.29 57.8134 140.947 57.9615 140.694 58.2245C140.441 58.4874 140.299 58.8436 140.299 59.215C140.299 59.5864 140.441 59.9426 140.694 60.2055C140.947 60.4684 141.29 60.6166 141.648 60.6174H169.083C169.261 60.618 169.437 60.5823 169.602 60.5123C169.766 60.4422 169.916 60.3393 170.042 60.2093C170.168 60.0793 170.268 59.9249 170.336 59.7548C170.404 59.5847 170.44 59.4022 170.44 59.2179C170.441 59.0336 170.406 58.8511 170.338 58.6807C170.27 58.5103 170.171 58.3554 170.046 58.2248C169.92 58.0943 169.771 57.9907 169.607 57.92C169.443 57.8492 169.267 57.8127 169.089 57.8125C169.087 57.8125 169.085 57.8125 169.083 57.8125H141.648Z" fill="#003399"/>
<path d="M153.96 114.943H109.111L119.665 95.9856C119.854 95.6458 120.126 95.3636 120.454 95.1675C120.782 94.9713 121.153 94.868 121.532 94.868C121.91 94.868 122.282 94.9713 122.609 95.1675C122.937 95.3636 123.209 95.6458 123.398 95.9856L127.907 104.084L135.574 90.314C135.811 89.8886 136.151 89.5353 136.561 89.2897C136.972 89.0441 137.437 88.9148 137.911 88.9148C138.384 88.9148 138.85 89.0441 139.26 89.2897C139.67 89.5353 140.011 89.8886 140.248 90.314L153.96 114.943ZM110.491 114.117H152.58L139.558 90.7272C139.391 90.4274 139.151 90.1784 138.862 90.0053C138.572 89.8322 138.245 89.7411 137.911 89.7411C137.577 89.7411 137.249 89.8322 136.96 90.0053C136.671 90.1784 136.431 90.4274 136.264 90.7272L127.907 105.737L122.708 96.3988C122.589 96.1846 122.418 96.0067 122.211 95.883C122.005 95.7594 121.77 95.6943 121.532 95.6943C121.293 95.6943 121.059 95.7594 120.853 95.883C120.646 96.0067 120.475 96.1846 120.355 96.3988L110.491 114.117Z" fill="#282828"/>
<path d="M211.332 114.943H166.482L177.037 95.9856C177.226 95.6458 177.498 95.3636 177.826 95.1674C178.153 94.9712 178.525 94.8679 178.903 94.8679C179.282 94.8679 179.653 94.9712 179.981 95.1674C180.309 95.3636 180.581 95.6458 180.77 95.9856L185.279 104.084L192.945 90.314C193.182 89.8886 193.523 89.5353 193.933 89.2897C194.343 89.0441 194.809 88.9148 195.282 88.9148C195.756 88.9148 196.221 89.0441 196.632 89.2897C197.042 89.5353 197.382 89.8886 197.619 90.314L211.332 114.943ZM167.862 114.117H209.952L196.929 90.7271C196.762 90.4273 196.522 90.1784 196.233 90.0053C195.944 89.8322 195.616 89.7411 195.282 89.7411C194.948 89.7411 194.621 89.8322 194.331 90.0053C194.042 90.1784 193.802 90.4273 193.636 90.7271L185.279 105.737L180.08 96.3987C179.961 96.1846 179.789 96.0067 179.583 95.883C179.376 95.7594 179.142 95.6943 178.903 95.6943C178.665 95.6943 178.431 95.7594 178.224 95.883C178.018 96.0067 177.846 96.1846 177.727 96.3987L167.862 114.117Z" fill="#282828"/>
<path d="M154.002 114.938H106.193C105.665 114.938 105.158 114.72 104.785 114.333C104.411 113.945 104.201 113.42 104.201 112.873V85.2015C104.201 84.6538 104.411 84.1288 104.785 83.7415C105.158 83.3542 105.665 83.1364 106.193 83.1357H154.002C154.531 83.1364 155.037 83.3542 155.41 83.7415C155.784 84.1288 155.994 84.6538 155.995 85.2015V112.873C155.994 113.42 155.784 113.945 155.41 114.333C155.037 114.72 154.531 114.938 154.002 114.938ZM106.193 83.962C105.876 83.9624 105.572 84.0931 105.348 84.3255C105.124 84.5578 104.998 84.8729 104.997 85.2015V112.873C104.998 113.201 105.124 113.516 105.348 113.749C105.572 113.981 105.876 114.112 106.193 114.112H154.002C154.319 114.112 154.623 113.981 154.847 113.749C155.071 113.516 155.197 113.201 155.198 112.873V85.2015C155.197 84.8729 155.071 84.5578 154.847 84.3254C154.623 84.0931 154.319 83.9624 154.002 83.962L106.193 83.962Z" fill="#282828"/>
<path d="M116.38 203.269C116.202 203.269 116.026 203.305 115.862 203.375C115.698 203.446 115.548 203.549 115.422 203.679C115.296 203.81 115.197 203.964 115.129 204.135C115.06 204.305 115.025 204.487 115.025 204.672C115.025 204.856 115.06 205.039 115.129 205.209C115.197 205.379 115.296 205.534 115.422 205.664C115.548 205.795 115.698 205.898 115.862 205.968C116.026 206.039 116.202 206.075 116.38 206.074H143.815C144.174 206.074 144.518 205.926 144.772 205.663C145.025 205.4 145.168 205.044 145.168 204.672C145.168 204.3 145.025 203.943 144.772 203.68C144.518 203.417 144.174 203.269 143.815 203.269H116.38Z" fill="#282828"/>
<path d="M116.38 211.532C116.202 211.532 116.026 211.568 115.862 211.639C115.698 211.709 115.548 211.812 115.422 211.942C115.296 212.073 115.197 212.227 115.129 212.398C115.06 212.568 115.025 212.751 115.025 212.935C115.025 213.119 115.06 213.302 115.129 213.472C115.197 213.643 115.296 213.797 115.422 213.927C115.548 214.058 115.698 214.161 115.862 214.231C116.026 214.302 116.202 214.338 116.38 214.337H143.815C144.174 214.337 144.517 214.189 144.77 213.926C145.023 213.663 145.165 213.306 145.165 212.935C145.165 212.563 145.023 212.207 144.77 211.944C144.517 211.681 144.174 211.533 143.815 211.532H116.38Z" fill="#282828"/>
<path d="M130.098 237.739C128.414 237.739 126.768 237.221 125.368 236.251C123.968 235.281 122.877 233.903 122.233 232.29C121.588 230.676 121.42 228.901 121.748 227.189C122.077 225.476 122.888 223.904 124.078 222.669C125.269 221.434 126.786 220.594 128.437 220.253C130.088 219.912 131.8 220.087 133.355 220.755C134.911 221.423 136.241 222.555 137.176 224.007C138.111 225.458 138.611 227.165 138.611 228.911C138.608 231.252 137.71 233.496 136.114 235.151C134.519 236.806 132.355 237.736 130.098 237.739ZM130.098 220.91C128.572 220.91 127.08 221.379 125.811 222.258C124.542 223.137 123.553 224.387 122.969 225.849C122.385 227.311 122.232 228.92 122.53 230.472C122.828 232.024 123.562 233.45 124.642 234.569C125.721 235.688 127.096 236.45 128.592 236.759C130.089 237.068 131.641 236.909 133.051 236.304C134.46 235.698 135.666 234.673 136.513 233.357C137.361 232.041 137.814 230.494 137.814 228.911C137.811 226.79 136.998 224.756 135.551 223.256C134.105 221.756 132.143 220.912 130.098 220.91V220.91Z" fill="#282828"/>
<path d="M202.78 237.739C202.958 237.74 203.134 237.704 203.299 237.633C203.463 237.563 203.612 237.46 203.738 237.329C203.864 237.199 203.964 237.044 204.032 236.874C204.1 236.704 204.135 236.521 204.135 236.337C204.135 236.152 204.1 235.97 204.032 235.8C203.964 235.629 203.864 235.475 203.738 235.344C203.612 235.214 203.463 235.111 203.299 235.04C203.134 234.97 202.958 234.934 202.78 234.934H175.345C174.986 234.934 174.642 235.082 174.389 235.345C174.135 235.608 173.993 235.965 173.993 236.337C173.993 236.709 174.135 237.066 174.389 237.329C174.642 237.592 174.986 237.739 175.345 237.739H202.78Z" fill="#282828"/>
<path d="M202.78 229.476C202.958 229.476 203.134 229.44 203.299 229.37C203.463 229.3 203.612 229.196 203.738 229.066C203.864 228.936 203.964 228.781 204.032 228.611C204.1 228.441 204.135 228.258 204.135 228.074C204.135 227.889 204.1 227.707 204.032 227.536C203.964 227.366 203.864 227.211 203.738 227.081C203.612 226.951 203.463 226.848 203.299 226.777C203.134 226.707 202.958 226.671 202.78 226.671H175.345C174.986 226.671 174.642 226.819 174.389 227.082C174.135 227.345 173.993 227.702 173.993 228.074C173.993 228.446 174.135 228.802 174.389 229.065C174.642 229.328 174.986 229.476 175.345 229.476H202.78Z" fill="#282828"/>
<path d="M189.063 203.269C190.746 203.269 192.392 203.787 193.792 204.757C195.192 205.727 196.283 207.106 196.928 208.719C197.572 210.332 197.741 212.107 197.412 213.819C197.084 215.532 196.273 217.105 195.082 218.34C193.892 219.574 192.375 220.415 190.724 220.756C189.072 221.096 187.361 220.921 185.805 220.253C184.249 219.585 182.92 218.454 181.984 217.002C181.049 215.55 180.55 213.843 180.55 212.097V212.097C180.552 209.757 181.45 207.513 183.046 205.858C184.642 204.203 186.806 203.272 189.063 203.269ZM189.063 220.099C190.589 220.099 192.081 219.63 193.35 218.75C194.619 217.871 195.608 216.621 196.192 215.159C196.776 213.697 196.928 212.088 196.631 210.536C196.333 208.984 195.598 207.558 194.519 206.439C193.44 205.32 192.065 204.558 190.568 204.249C189.071 203.941 187.52 204.099 186.11 204.705C184.7 205.31 183.495 206.336 182.647 207.652C181.799 208.968 181.347 210.515 181.347 212.097V212.097C181.349 214.219 182.163 216.252 183.609 217.752C185.056 219.253 187.017 220.096 189.063 220.099V220.099Z" fill="#282828"/>
<path d="M0.5 297C0.5 291.753 4.7533 287.5 10 287.5H316C321.247 287.5 325.5 291.753 325.5 297V346C325.5 351.247 321.247 355.5 316 355.5H10C4.7533 355.5 0.5 351.247 0.5 346V297Z" fill="white" stroke="black"/>
<path d="M51.3975 333L49.1575 326.408H40.1335L37.8935 333H35.1735L42.9815 310.664H46.4055L54.2135 333H51.3975ZM44.7095 313.16H44.5495L40.7735 324.04H48.4855L44.7095 313.16ZM57.6575 316.488H60.2175V319.176H60.3455C60.7722 318.131 61.3908 317.363 62.2015 316.872C63.0335 316.36 64.0255 316.104 65.1775 316.104C66.2015 316.104 67.1295 316.307 67.9615 316.712C68.7935 317.117 69.4975 317.693 70.0735 318.44C70.6708 319.187 71.1188 320.093 71.4175 321.16C71.7375 322.227 71.8975 323.421 71.8975 324.744C71.8975 326.067 71.7375 327.261 71.4175 328.328C71.1188 329.395 70.6708 330.301 70.0735 331.048C69.4975 331.795 68.7935 332.371 67.9615 332.776C67.1295 333.181 66.2015 333.384 65.1775 333.384C62.9375 333.384 61.3268 332.36 60.3455 330.312H60.2175V339.4H57.6575V316.488ZM64.4735 331.08C65.9242 331.08 67.0655 330.632 67.8975 329.736C68.7295 328.819 69.1455 327.624 69.1455 326.152V323.336C69.1455 321.864 68.7295 320.68 67.8975 319.784C67.0655 318.867 65.9242 318.408 64.4735 318.408C63.8975 318.408 63.3428 318.493 62.8095 318.664C62.2975 318.813 61.8495 319.027 61.4655 319.304C61.0815 319.581 60.7722 319.923 60.5375 320.328C60.3242 320.712 60.2175 321.128 60.2175 321.576V327.72C60.2175 328.253 60.3242 328.733 60.5375 329.16C60.7722 329.565 61.0815 329.917 61.4655 330.216C61.8495 330.493 62.2975 330.707 62.8095 330.856C63.3428 331.005 63.8975 331.08 64.4735 331.08ZM76.22 316.488H78.78V319.176H78.908C79.3347 318.131 79.9533 317.363 80.764 316.872C81.596 316.36 82.588 316.104 83.74 316.104C84.764 316.104 85.692 316.307 86.524 316.712C87.356 317.117 88.06 317.693 88.636 318.44C89.2333 319.187 89.6813 320.093 89.98 321.16C90.3 322.227 90.46 323.421 90.46 324.744C90.46 326.067 90.3 327.261 89.98 328.328C89.6813 329.395 89.2333 330.301 88.636 331.048C88.06 331.795 87.356 332.371 86.524 332.776C85.692 333.181 84.764 333.384 83.74 333.384C81.5 333.384 79.8893 332.36 78.908 330.312H78.78V339.4H76.22V316.488ZM83.036 331.08C84.4867 331.08 85.628 330.632 86.46 329.736C87.292 328.819 87.708 327.624 87.708 326.152V323.336C87.708 321.864 87.292 320.68 86.46 319.784C85.628 318.867 84.4867 318.408 83.036 318.408C82.46 318.408 81.9053 318.493 81.372 318.664C80.86 318.813 80.412 319.027 80.028 319.304C79.644 319.581 79.3347 319.923 79.1 320.328C78.8867 320.712 78.78 321.128 78.78 321.576V327.72C78.78 328.253 78.8867 328.733 79.1 329.16C79.3347 329.565 79.644 329.917 80.028 330.216C80.412 330.493 80.86 330.707 81.372 330.856C81.9053 331.005 82.46 331.08 83.036 331.08ZM102.601 310.664H110.089C111.476 310.664 112.734 310.899 113.865 311.368C114.996 311.837 115.956 312.541 116.745 313.48C117.556 314.397 118.174 315.56 118.601 316.968C119.028 318.355 119.241 319.976 119.241 321.832C119.241 323.688 119.028 325.32 118.601 326.728C118.174 328.115 117.556 329.277 116.745 330.216C115.956 331.133 114.996 331.827 113.865 332.296C112.734 332.765 111.476 333 110.089 333H102.601V310.664ZM110.089 330.632C111.006 330.632 111.849 330.483 112.617 330.184C113.385 329.864 114.046 329.405 114.601 328.808C115.156 328.211 115.582 327.485 115.881 326.632C116.201 325.757 116.361 324.765 116.361 323.656V320.008C116.361 318.899 116.201 317.917 115.881 317.064C115.582 316.189 115.156 315.453 114.601 314.856C114.046 314.259 113.385 313.811 112.617 313.512C111.849 313.192 111.006 313.032 110.089 313.032H105.289V330.632H110.089ZM130.022 333.384C128.891 333.384 127.867 333.181 126.95 332.776C126.054 332.371 125.275 331.795 124.614 331.048C123.974 330.28 123.472 329.373 123.11 328.328C122.768 327.261 122.598 326.067 122.598 324.744C122.598 323.443 122.768 322.259 123.11 321.192C123.472 320.125 123.974 319.219 124.614 318.472C125.275 317.704 126.054 317.117 126.95 316.712C127.867 316.307 128.891 316.104 130.022 316.104C131.131 316.104 132.123 316.307 132.998 316.712C133.872 317.117 134.619 317.683 135.238 318.408C135.856 319.112 136.326 319.955 136.646 320.936C136.987 321.917 137.158 322.995 137.158 324.168V325.384H125.286V326.152C125.286 326.856 125.392 327.517 125.606 328.136C125.84 328.733 126.16 329.256 126.566 329.704C126.992 330.152 127.504 330.504 128.102 330.76C128.72 331.016 129.414 331.144 130.182 331.144C131.227 331.144 132.134 330.899 132.902 330.408C133.691 329.917 134.299 329.213 134.726 328.296L136.55 329.608C136.016 330.739 135.184 331.656 134.054 332.36C132.923 333.043 131.579 333.384 130.022 333.384ZM130.022 318.248C129.318 318.248 128.678 318.376 128.102 318.632C127.526 318.867 127.024 319.208 126.598 319.656C126.192 320.104 125.872 320.637 125.638 321.256C125.403 321.853 125.286 322.515 125.286 323.24V323.464H134.406V323.112C134.406 321.64 134 320.467 133.19 319.592C132.4 318.696 131.344 318.248 130.022 318.248ZM144.774 333L138.982 316.488H141.542L144.422 324.68L146.214 330.312H146.374L148.166 324.68L151.11 316.488H153.574L147.75 333H144.774ZM162.834 333.384C161.704 333.384 160.68 333.181 159.762 332.776C158.866 332.371 158.088 331.795 157.426 331.048C156.786 330.28 156.285 329.373 155.922 328.328C155.581 327.261 155.41 326.067 155.41 324.744C155.41 323.443 155.581 322.259 155.922 321.192C156.285 320.125 156.786 319.219 157.426 318.472C158.088 317.704 158.866 317.117 159.762 316.712C160.68 316.307 161.704 316.104 162.834 316.104C163.944 316.104 164.936 316.307 165.81 316.712C166.685 317.117 167.432 317.683 168.05 318.408C168.669 319.112 169.138 319.955 169.458 320.936C169.8 321.917 169.97 322.995 169.97 324.168V325.384H158.098V326.152C158.098 326.856 158.205 327.517 158.418 328.136C158.653 328.733 158.973 329.256 159.378 329.704C159.805 330.152 160.317 330.504 160.914 330.76C161.533 331.016 162.226 331.144 162.994 331.144C164.04 331.144 164.946 330.899 165.714 330.408C166.504 329.917 167.112 329.213 167.538 328.296L169.362 329.608C168.829 330.739 167.997 331.656 166.866 332.36C165.736 333.043 164.392 333.384 162.834 333.384ZM162.834 318.248C162.13 318.248 161.49 318.376 160.914 318.632C160.338 318.867 159.837 319.208 159.41 319.656C159.005 320.104 158.685 320.637 158.45 321.256C158.216 321.853 158.098 322.515 158.098 323.24V323.464H167.218V323.112C167.218 321.64 166.813 320.467 166.002 319.592C165.213 318.696 164.157 318.248 162.834 318.248ZM176.909 333C176.013 333 175.33 332.755 174.861 332.264C174.413 331.752 174.189 331.112 174.189 330.344V309.32H176.749V330.76H179.181V333H176.909ZM189.148 333.384C188.038 333.384 187.025 333.181 186.108 332.776C185.19 332.371 184.401 331.795 183.74 331.048C183.1 330.28 182.598 329.373 182.236 328.328C181.873 327.261 181.692 326.067 181.692 324.744C181.692 323.443 181.873 322.259 182.236 321.192C182.598 320.125 183.1 319.219 183.74 318.472C184.401 317.704 185.19 317.117 186.108 316.712C187.025 316.307 188.038 316.104 189.148 316.104C190.257 316.104 191.26 316.307 192.156 316.712C193.073 317.117 193.862 317.704 194.524 318.472C195.185 319.219 195.697 320.125 196.06 321.192C196.422 322.259 196.604 323.443 196.604 324.744C196.604 326.067 196.422 327.261 196.06 328.328C195.697 329.373 195.185 330.28 194.524 331.048C193.862 331.795 193.073 332.371 192.156 332.776C191.26 333.181 190.257 333.384 189.148 333.384ZM189.148 331.112C190.534 331.112 191.665 330.685 192.54 329.832C193.414 328.979 193.852 327.677 193.852 325.928V323.56C193.852 321.811 193.414 320.509 192.54 319.656C191.665 318.803 190.534 318.376 189.148 318.376C187.761 318.376 186.63 318.803 185.756 319.656C184.881 320.509 184.444 321.811 184.444 323.56V325.928C184.444 327.677 184.881 328.979 185.756 329.832C186.63 330.685 187.761 331.112 189.148 331.112ZM200.814 316.488H203.374V319.176H203.502C203.928 318.131 204.547 317.363 205.358 316.872C206.19 316.36 207.182 316.104 208.334 316.104C209.358 316.104 210.286 316.307 211.118 316.712C211.95 317.117 212.654 317.693 213.23 318.44C213.827 319.187 214.275 320.093 214.574 321.16C214.894 322.227 215.054 323.421 215.054 324.744C215.054 326.067 214.894 327.261 214.574 328.328C214.275 329.395 213.827 330.301 213.23 331.048C212.654 331.795 211.95 332.371 211.118 332.776C210.286 333.181 209.358 333.384 208.334 333.384C206.094 333.384 204.483 332.36 203.502 330.312H203.374V339.4H200.814V316.488ZM207.63 331.08C209.08 331.08 210.222 330.632 211.054 329.736C211.886 328.819 212.302 327.624 212.302 326.152V323.336C212.302 321.864 211.886 320.68 211.054 319.784C210.222 318.867 209.08 318.408 207.63 318.408C207.054 318.408 206.499 318.493 205.966 318.664C205.454 318.813 205.006 319.027 204.622 319.304C204.238 319.581 203.928 319.923 203.694 320.328C203.48 320.712 203.374 321.128 203.374 321.576V327.72C203.374 328.253 203.48 328.733 203.694 329.16C203.928 329.565 204.238 329.917 204.622 330.216C205.006 330.493 205.454 330.707 205.966 330.856C206.499 331.005 207.054 331.08 207.63 331.08ZM219.376 333V316.488H221.936V319.176H222.064C222.256 318.749 222.47 318.355 222.704 317.992C222.96 317.608 223.259 317.277 223.6 317C223.963 316.723 224.379 316.509 224.848 316.36C225.318 316.189 225.872 316.104 226.512 316.104C227.6 316.104 228.603 316.371 229.52 316.904C230.438 317.416 231.12 318.269 231.568 319.464H231.632C231.931 318.568 232.486 317.789 233.296 317.128C234.128 316.445 235.248 316.104 236.656 316.104C238.342 316.104 239.654 316.659 240.592 317.768C241.552 318.856 242.032 320.403 242.032 322.408V333H239.472V322.856C239.472 321.384 239.184 320.275 238.608 319.528C238.032 318.781 237.115 318.408 235.856 318.408C235.344 318.408 234.854 318.472 234.384 318.6C233.936 318.728 233.531 318.92 233.168 319.176C232.806 319.432 232.518 319.763 232.304 320.168C232.091 320.552 231.984 321.011 231.984 321.544V333H229.424V322.856C229.424 321.384 229.136 320.275 228.56 319.528C227.984 318.781 227.088 318.408 225.872 318.408C225.36 318.408 224.87 318.472 224.4 318.6C223.931 318.728 223.515 318.92 223.152 319.176C222.79 319.432 222.491 319.763 222.256 320.168C222.043 320.552 221.936 321.011 221.936 321.544V333H219.376ZM253.522 333.384C252.391 333.384 251.367 333.181 250.45 332.776C249.554 332.371 248.775 331.795 248.114 331.048C247.474 330.28 246.972 329.373 246.61 328.328C246.268 327.261 246.098 326.067 246.098 324.744C246.098 323.443 246.268 322.259 246.61 321.192C246.972 320.125 247.474 319.219 248.114 318.472C248.775 317.704 249.554 317.117 250.45 316.712C251.367 316.307 252.391 316.104 253.522 316.104C254.631 316.104 255.623 316.307 256.498 316.712C257.372 317.117 258.119 317.683 258.738 318.408C259.356 319.112 259.826 319.955 260.146 320.936C260.487 321.917 260.658 322.995 260.658 324.168V325.384H248.786V326.152C248.786 326.856 248.892 327.517 249.106 328.136C249.34 328.733 249.66 329.256 250.066 329.704C250.492 330.152 251.004 330.504 251.602 330.76C252.22 331.016 252.914 331.144 253.682 331.144C254.727 331.144 255.634 330.899 256.402 330.408C257.191 329.917 257.799 329.213 258.226 328.296L260.05 329.608C259.516 330.739 258.684 331.656 257.554 332.36C256.423 333.043 255.079 333.384 253.522 333.384ZM253.522 318.248C252.818 318.248 252.178 318.376 251.602 318.632C251.026 318.867 250.524 319.208 250.098 319.656C249.692 320.104 249.372 320.637 249.138 321.256C248.903 321.853 248.786 322.515 248.786 323.24V323.464H257.906V323.112C257.906 321.64 257.5 320.467 256.69 319.592C255.9 318.696 254.844 318.248 253.522 318.248ZM264.876 333V316.488H267.436V319.176H267.564C267.97 318.237 268.535 317.491 269.26 316.936C270.007 316.381 270.999 316.104 272.236 316.104C273.943 316.104 275.287 316.659 276.268 317.768C277.271 318.856 277.772 320.403 277.772 322.408V333H275.212V322.856C275.212 319.891 273.964 318.408 271.468 318.408C270.956 318.408 270.455 318.472 269.964 318.6C269.495 318.728 269.068 318.92 268.684 319.176C268.3 319.432 267.991 319.763 267.756 320.168C267.543 320.552 267.436 321.011 267.436 321.544V333H264.876ZM286.712 333C285.816 333 285.133 332.755 284.664 332.264C284.216 331.752 283.992 331.091 283.992 330.28V318.728H281.272V316.488H282.808C283.362 316.488 283.736 316.381 283.928 316.168C284.141 315.933 284.248 315.539 284.248 314.984V311.912H286.552V316.488H290.168V318.728H286.552V330.76H289.912V333H286.712Z" fill="black"/>
</svg>
