<svg width="326" height="69" viewBox="0 0 326 69" fill="none" xmlns="http://www.w3.org/2000/svg">
<path d="M0.5 10C0.5 4.7533 4.7533 0.5 10 0.5H316C321.247 0.5 325.5 4.75329 325.5 10V59C325.5 64.2467 321.247 68.5 316 68.5H10C4.7533 68.5 0.5 64.2467 0.5 59V10Z" fill="white" stroke="black"/>
<path d="M78.8949 46.384C76.0575 46.384 73.8495 45.424 72.2709 43.504C70.6922 41.5627 69.9029 38.7147 69.9029 34.96C69.9029 31.2053 70.6922 28.3253 72.2709 26.32C73.8495 24.2933 76.0575 23.28 78.8949 23.28C80.7722 23.28 82.3402 23.7067 83.5989 24.56C84.8789 25.4133 85.8709 26.6187 86.5749 28.176L84.3989 29.488C83.9509 28.336 83.2682 27.4187 82.3509 26.736C81.4335 26.032 80.2815 25.68 78.8949 25.68C77.9349 25.68 77.0709 25.8613 76.3029 26.224C75.5562 26.5867 74.9162 27.1093 74.3829 27.792C73.8709 28.4533 73.4762 29.2533 73.1989 30.192C72.9215 31.1093 72.7829 32.144 72.7829 33.296V36.624C72.7829 38.928 73.3162 40.7307 74.3829 42.032C75.4495 43.3333 76.9535 43.984 78.8949 43.984C80.3242 43.984 81.5189 43.6213 82.4789 42.896C83.4389 42.1493 84.1429 41.168 84.5909 39.952L86.7349 41.296C86.0309 42.8747 85.0175 44.1227 83.6949 45.04C82.3722 45.936 80.7722 46.384 78.8949 46.384ZM93.3619 46C92.4659 46 91.7832 45.7547 91.3139 45.264C90.8659 44.752 90.6419 44.112 90.6419 43.344V22.32H93.2019V43.76H95.6339V46H93.3619ZM105.601 46.384C104.491 46.384 103.478 46.1813 102.561 45.776C101.643 45.3707 100.854 44.7947 100.193 44.048C99.5526 43.28 99.0513 42.3733 98.6886 41.328C98.326 40.2613 98.1446 39.0667 98.1446 37.744C98.1446 36.4427 98.326 35.2587 98.6886 34.192C99.0513 33.1253 99.5526 32.2187 100.193 31.472C100.854 30.704 101.643 30.1173 102.561 29.712C103.478 29.3067 104.491 29.104 105.601 29.104C106.71 29.104 107.713 29.3067 108.609 29.712C109.526 30.1173 110.315 30.704 110.977 31.472C111.638 32.2187 112.15 33.1253 112.513 34.192C112.875 35.2587 113.057 36.4427 113.057 37.744C113.057 39.0667 112.875 40.2613 112.513 41.328C112.15 42.3733 111.638 43.28 110.977 44.048C110.315 44.7947 109.526 45.3707 108.609 45.776C107.713 46.1813 106.71 46.384 105.601 46.384ZM105.601 44.112C106.987 44.112 108.118 43.6853 108.993 42.832C109.867 41.9787 110.305 40.6773 110.305 38.928V36.56C110.305 34.8107 109.867 33.5093 108.993 32.656C108.118 31.8027 106.987 31.376 105.601 31.376C104.214 31.376 103.083 31.8027 102.209 32.656C101.334 33.5093 100.897 34.8107 100.897 36.56V38.928C100.897 40.6773 101.334 41.9787 102.209 42.832C103.083 43.6853 104.214 44.112 105.601 44.112ZM117.267 46V29.488H119.827V32.176H119.955C120.36 31.2373 120.926 30.4907 121.651 29.936C122.398 29.3813 123.39 29.104 124.627 29.104C126.334 29.104 127.678 29.6587 128.659 30.768C129.662 31.856 130.163 33.4027 130.163 35.408V46H127.603V35.856C127.603 32.8907 126.355 31.408 123.859 31.408C123.347 31.408 122.846 31.472 122.355 31.6C121.886 31.728 121.459 31.92 121.075 32.176C120.691 32.432 120.382 32.7627 120.147 33.168C119.934 33.552 119.827 34.0107 119.827 34.544V46H117.267ZM136.734 25.616C136.18 25.616 135.774 25.488 135.518 25.232C135.284 24.9547 135.166 24.6027 135.166 24.176V23.76C135.166 23.3333 135.284 22.992 135.518 22.736C135.774 22.4587 136.18 22.32 136.734 22.32C137.289 22.32 137.684 22.4587 137.918 22.736C138.174 22.992 138.302 23.3333 138.302 23.76V24.176C138.302 24.6027 138.174 24.9547 137.918 25.232C137.684 25.488 137.289 25.616 136.734 25.616ZM135.454 29.488H138.014V46H135.454V29.488ZM143.454 46V29.488H146.014V32.176H146.142C146.548 31.2373 147.113 30.4907 147.838 29.936C148.585 29.3813 149.577 29.104 150.814 29.104C152.521 29.104 153.865 29.6587 154.846 30.768C155.849 31.856 156.35 33.4027 156.35 35.408V46H153.79V35.856C153.79 32.8907 152.542 31.408 150.046 31.408C149.534 31.408 149.033 31.472 148.542 31.6C148.073 31.728 147.646 31.92 147.262 32.176C146.878 32.432 146.569 32.7627 146.334 33.168C146.121 33.552 146.014 34.0107 146.014 34.544V46H143.454ZM175.562 47.824C175.562 49.5307 174.89 50.7787 173.546 51.568C172.223 52.3787 170.229 52.784 167.562 52.784C164.981 52.784 163.125 52.432 161.994 51.728C160.863 51.024 160.298 50.0213 160.298 48.72C160.298 47.824 160.533 47.12 161.002 46.608C161.471 46.1173 162.111 45.7547 162.922 45.52V45.168C161.941 44.6987 161.45 43.9307 161.45 42.864C161.45 42.032 161.717 41.4027 162.25 40.976C162.783 40.528 163.466 40.1973 164.298 39.984V39.856C163.317 39.3867 162.549 38.7147 161.994 37.84C161.461 36.9653 161.194 35.952 161.194 34.8C161.194 33.968 161.343 33.2 161.642 32.496C161.941 31.792 162.357 31.1947 162.89 30.704C163.445 30.192 164.095 29.7973 164.842 29.52C165.61 29.2427 166.463 29.104 167.402 29.104C168.575 29.104 169.621 29.3173 170.538 29.744V29.456C170.538 28.816 170.687 28.2933 170.986 27.888C171.285 27.4613 171.775 27.248 172.458 27.248H174.922V29.488H171.786V30.544C172.383 31.056 172.842 31.6747 173.162 32.4C173.503 33.104 173.674 33.904 173.674 34.8C173.674 35.632 173.525 36.4 173.226 37.104C172.927 37.808 172.501 38.416 171.946 38.928C171.413 39.4187 170.762 39.8027 169.994 40.08C169.226 40.3573 168.373 40.496 167.434 40.496C166.901 40.496 166.367 40.4427 165.834 40.336C165.279 40.4853 164.778 40.7093 164.33 41.008C163.882 41.2853 163.658 41.68 163.658 42.192C163.658 42.6827 163.893 43.0133 164.362 43.184C164.831 43.3547 165.439 43.44 166.186 43.44H169.706C171.754 43.44 173.237 43.8347 174.154 44.624C175.093 45.392 175.562 46.4587 175.562 47.824ZM173.162 48.016C173.162 47.3547 172.906 46.8213 172.394 46.416C171.903 46.032 171.018 45.84 169.738 45.84H164.234C163.21 46.3093 162.698 47.056 162.698 48.08C162.698 48.8053 162.965 49.424 163.498 49.936C164.053 50.448 164.981 50.704 166.282 50.704H168.65C170.079 50.704 171.189 50.48 171.978 50.032C172.767 49.584 173.162 48.912 173.162 48.016ZM167.434 38.448C168.522 38.448 169.386 38.192 170.026 37.68C170.666 37.1467 170.986 36.336 170.986 35.248V34.352C170.986 33.264 170.666 32.464 170.026 31.952C169.386 31.4187 168.522 31.152 167.434 31.152C166.346 31.152 165.482 31.4187 164.842 31.952C164.202 32.464 163.882 33.264 163.882 34.352V35.248C163.882 36.336 164.202 37.1467 164.842 37.68C165.482 38.192 166.346 38.448 167.434 38.448ZM189.471 46L184.031 23.664H186.879L189.279 34.416L191.135 42.768H191.199L193.279 34.416L196.095 23.664H199.167L201.887 34.416L203.967 42.736H204.063L205.983 34.416L208.511 23.664H211.263L205.535 46H202.559L199.647 34.864L197.599 26.672H197.535L195.423 34.864L192.447 46H189.471ZM220.382 46.384C219.273 46.384 218.259 46.1813 217.342 45.776C216.425 45.3707 215.635 44.7947 214.974 44.048C214.334 43.28 213.833 42.3733 213.47 41.328C213.107 40.2613 212.926 39.0667 212.926 37.744C212.926 36.4427 213.107 35.2587 213.47 34.192C213.833 33.1253 214.334 32.2187 214.974 31.472C215.635 30.704 216.425 30.1173 217.342 29.712C218.259 29.3067 219.273 29.104 220.382 29.104C221.491 29.104 222.494 29.3067 223.39 29.712C224.307 30.1173 225.097 30.704 225.758 31.472C226.419 32.2187 226.931 33.1253 227.294 34.192C227.657 35.2587 227.838 36.4427 227.838 37.744C227.838 39.0667 227.657 40.2613 227.294 41.328C226.931 42.3733 226.419 43.28 225.758 44.048C225.097 44.7947 224.307 45.3707 223.39 45.776C222.494 46.1813 221.491 46.384 220.382 46.384ZM220.382 44.112C221.769 44.112 222.899 43.6853 223.774 42.832C224.649 41.9787 225.086 40.6773 225.086 38.928V36.56C225.086 34.8107 224.649 33.5093 223.774 32.656C222.899 31.8027 221.769 31.376 220.382 31.376C218.995 31.376 217.865 31.8027 216.99 32.656C216.115 33.5093 215.678 34.8107 215.678 36.56V38.928C215.678 40.6773 216.115 41.9787 216.99 42.832C217.865 43.6853 218.995 44.112 220.382 44.112ZM232.048 46V29.488H234.608V32.528H234.768C235.067 31.7387 235.6 31.0347 236.368 30.416C237.136 29.7973 238.192 29.488 239.536 29.488H240.528V32.048H239.024C237.637 32.048 236.549 32.3147 235.76 32.848C234.992 33.36 234.608 34.0107 234.608 34.8V46H232.048ZM243.798 22.32H246.358V37.328H246.486L249.014 34.512L253.686 29.488H256.79L250.678 36.016L257.398 46H254.294L248.822 37.584L246.358 40.112V46H243.798V22.32Z" fill="black"/>
</svg>
