<svg width="522" height="579" viewBox="0 0 522 579" fill="none" xmlns="http://www.w3.org/2000/svg">
<path d="M50.7571 294C50.7571 294 -71.2206 374.748 63.0073 465.163C197.235 555.579 474.266 579 474.266 579C474.266 579 589.419 493.623 462.016 407.837C334.613 322.051 50.7571 294 50.7571 294Z" fill="#FFB200" fill-opacity="0.8"/>
<path d="M279.778 103.064H277.822V46.6507C277.822 37.9912 274.554 29.6864 268.738 23.5632C262.921 17.44 255.032 14 246.806 14H133.268C129.195 14 125.162 14.8445 121.399 16.4853C117.636 18.1262 114.216 20.5312 111.336 23.5631C108.456 26.595 106.171 30.1943 104.613 34.1557C103.054 38.117 102.252 42.3628 102.252 46.6505V356.14C102.252 360.428 103.054 364.673 104.613 368.635C106.171 372.596 108.456 376.196 111.336 379.227C114.216 382.259 117.636 384.664 121.399 386.305C125.162 387.946 129.195 388.791 133.268 388.791H246.806C250.879 388.791 254.912 387.946 258.675 386.305C262.438 384.664 265.857 382.259 268.738 379.228C271.618 376.196 273.902 372.596 275.461 368.635C277.02 364.674 277.822 360.428 277.822 356.14V143.22H279.778V103.064Z" fill="#282828"/>
<path d="M247.823 23.2668H233.003C233.685 25.0258 233.945 26.9342 233.761 28.824C233.576 30.7138 232.954 32.5269 231.947 34.1036C230.94 35.6803 229.581 36.9722 227.988 37.8655C226.396 38.7588 224.619 39.2262 222.814 39.2263H157.77C155.966 39.2262 154.189 38.7588 152.596 37.8655C151.003 36.9722 149.644 35.6803 148.637 34.1036C147.631 32.5269 147.008 30.7138 146.824 28.824C146.64 26.9342 146.9 25.0258 147.581 23.2668H133.739C127.596 23.2668 121.704 25.8357 117.361 30.4084C113.017 34.9812 110.576 41.1831 110.576 47.6499V356.685C110.576 359.887 111.176 363.058 112.34 366.016C113.504 368.975 115.21 371.662 117.361 373.927C119.511 376.191 122.065 377.987 124.875 379.212C127.685 380.438 130.697 381.068 133.739 381.068H247.823C253.967 381.068 259.858 378.499 264.202 373.927C268.546 369.354 270.986 363.152 270.986 356.685V47.65C270.986 44.4479 270.387 41.2772 269.223 38.3189C268.059 35.3606 266.353 32.6726 264.202 30.4085C262.051 28.1443 259.498 26.3482 256.687 25.1229C253.877 23.8975 250.865 23.2668 247.823 23.2668ZM245.333 166.63C245.329 168.304 244.695 169.907 243.571 171.091C242.447 172.274 240.924 172.941 239.334 172.946H210.336C208.746 172.941 207.223 172.274 206.099 171.091C204.974 169.907 204.341 168.304 204.336 166.63V165.051C204.341 163.378 204.974 161.774 206.099 160.591C207.223 159.407 208.746 158.74 210.336 158.736H239.334C240.924 158.74 242.447 159.407 243.571 160.591C244.695 161.774 245.329 163.378 245.333 165.051V166.63ZM248.583 138.736C248.579 140.409 247.945 142.013 246.821 143.196C245.697 144.38 244.173 145.047 242.584 145.051H138.59C137.001 145.047 135.477 144.38 134.353 143.196C133.229 142.013 132.595 140.409 132.591 138.736V137.157C132.595 135.483 133.229 133.88 134.353 132.696C135.477 131.513 137.001 130.846 138.59 130.841H242.584C244.173 130.846 245.697 131.513 246.821 132.696C247.945 133.88 248.579 135.483 248.583 137.157V138.736ZM248.583 110.841C248.579 112.515 247.945 114.118 246.821 115.302C245.697 116.485 244.173 117.152 242.584 117.157H138.59C137.001 117.152 135.477 116.485 134.353 115.302C133.229 114.118 132.595 112.515 132.591 110.841V109.262C132.595 107.589 133.229 105.985 134.353 104.802C135.477 103.618 137.001 102.951 138.59 102.947H242.584C244.173 102.951 245.697 103.618 246.821 104.802C247.945 105.985 248.579 107.589 248.583 109.262V110.841ZM248.583 82.9468C248.579 84.6203 247.945 86.2239 246.821 87.4073C245.697 88.5906 244.173 89.2576 242.584 89.2625H138.59C137.001 89.2576 135.477 88.5906 134.353 87.4073C133.229 86.2239 132.595 84.6203 132.591 82.9468V81.3678C132.595 79.6943 133.229 78.0907 134.353 76.9073C135.477 75.724 137.001 75.057 138.59 75.0521H242.584C244.173 75.057 245.697 75.724 246.821 76.9073C247.945 78.0907 248.579 79.6943 248.583 81.3678V82.9468Z" fill="white"/>
<path d="M140.84 141.894C142.773 141.894 144.34 140.244 144.34 138.209C144.34 136.175 142.773 134.525 140.84 134.525C138.907 134.525 137.34 136.175 137.34 138.209C137.34 140.244 138.907 141.894 140.84 141.894Z" fill="white"/>
<path d="M152.34 141.894C154.272 141.894 155.839 140.244 155.839 138.209C155.839 136.175 154.272 134.525 152.34 134.525C150.407 134.525 148.84 136.175 148.84 138.209C148.84 140.244 150.407 141.894 152.34 141.894Z" fill="white"/>
<path d="M163.839 141.894C165.772 141.894 167.339 140.244 167.339 138.209C167.339 136.175 165.772 134.525 163.839 134.525C161.906 134.525 160.339 136.175 160.339 138.209C160.339 140.244 161.906 141.894 163.839 141.894Z" fill="white"/>
<path d="M175.338 141.894C177.271 141.894 178.838 140.244 178.838 138.209C178.838 136.175 177.271 134.525 175.338 134.525C173.405 134.525 171.838 136.175 171.838 138.209C171.838 140.244 173.405 141.894 175.338 141.894Z" fill="white"/>
<path d="M212.836 169.788C214.769 169.788 216.335 168.139 216.335 166.104C216.335 164.069 214.769 162.42 212.836 162.42C210.903 162.42 209.336 164.069 209.336 166.104C209.336 168.139 210.903 169.788 212.836 169.788Z" fill="white"/>
<path d="M224.335 169.788C226.268 169.788 227.835 168.139 227.835 166.104C227.835 164.069 226.268 162.42 224.335 162.42C222.402 162.42 220.835 164.069 220.835 166.104C220.835 168.139 222.402 169.788 224.335 169.788Z" fill="white"/>
<path d="M235.834 169.788C237.767 169.788 239.334 168.139 239.334 166.104C239.334 164.069 237.767 162.42 235.834 162.42C233.901 162.42 232.334 164.069 232.334 166.104C232.334 168.139 233.901 169.788 235.834 169.788Z" fill="white"/>
<rect x="219" y="258" width="34" height="27" fill="#FFB200"/>
<path d="M249.388 213.839H130.786C128 213.839 125.328 215.004 123.357 217.079C121.387 219.153 120.28 221.966 120.28 224.899V285.729C120.28 288.662 121.387 291.475 123.357 293.549C125.328 295.623 128 296.788 130.786 296.788H249.388C252.174 296.788 254.846 295.623 256.817 293.549C258.787 291.475 259.894 288.662 259.894 285.729V224.899C259.894 221.966 258.787 219.153 256.817 217.079C254.846 215.004 252.174 213.839 249.388 213.839H249.388ZM127.852 221.384C128.086 221.339 133.64 220.344 138.238 223.257C142.837 226.169 144.604 231.801 144.676 232.039L144.862 232.646L144.265 232.758C143.414 232.898 142.553 232.964 141.692 232.957C138.958 233.012 136.261 232.296 133.879 230.884C129.28 227.972 127.514 222.34 127.441 222.102L127.255 221.495L127.852 221.384ZM153.597 277.86H132.444C130.901 277.86 129.421 277.215 128.33 276.067C127.239 274.918 126.626 273.361 126.626 271.736C126.626 270.112 127.239 268.555 128.33 267.406C129.421 266.258 130.901 265.613 132.444 265.613H153.597C155.14 265.613 156.62 266.258 157.711 267.406C158.802 268.555 159.414 270.112 159.414 271.736C159.414 273.361 158.802 274.918 157.711 276.067C156.62 277.215 155.14 277.86 153.597 277.86ZM249.846 276.747C249.841 278.517 249.171 280.213 247.982 281.465C246.793 282.717 245.181 283.422 243.5 283.427H227.635C225.953 283.422 224.342 282.717 223.153 281.465C221.964 280.213 221.293 278.517 221.289 276.747V266.726C221.293 264.956 221.964 263.26 223.153 262.008C224.342 260.756 225.953 260.051 227.635 260.046H243.5C245.181 260.051 246.793 260.756 247.982 262.008C249.171 263.26 249.841 264.956 249.846 266.726L249.846 276.747Z" fill="#282828"/>
<path d="M226.371 275.182H232.75C233.064 275.182 233.371 275.313 233.602 275.556C233.833 275.799 233.967 276.135 233.967 276.49C233.967 276.845 233.833 277.18 233.602 277.424C233.371 277.666 233.064 277.798 232.75 277.798H226.371C226.057 277.798 225.75 277.666 225.519 277.424C225.288 277.18 225.154 276.845 225.154 276.49C225.154 276.135 225.288 275.799 225.519 275.556C225.75 275.313 226.057 275.182 226.371 275.182Z" fill="white" stroke="black"/>
<path d="M237.296 277.424L236.933 277.768L237.296 277.424C237.064 277.18 236.93 276.845 236.93 276.49C236.93 276.135 237.064 275.799 237.296 275.556C237.526 275.313 237.833 275.182 238.148 275.182H244.527C244.841 275.182 245.148 275.313 245.378 275.556C245.61 275.799 245.744 276.135 245.744 276.49C245.744 276.845 245.61 277.18 245.378 277.424C245.148 277.666 244.841 277.798 244.527 277.798H238.148C237.833 277.798 237.526 277.666 237.296 277.424Z" fill="white" stroke="black"/>
<path d="M226.37 270.078H232.749C233.063 270.078 233.37 270.21 233.601 270.452C233.832 270.696 233.966 271.031 233.966 271.386C233.966 271.741 233.832 272.077 233.601 272.32C233.37 272.563 233.063 272.694 232.749 272.694H226.37C226.056 272.694 225.749 272.563 225.518 272.32C225.287 272.077 225.153 271.741 225.153 271.386C225.153 271.031 225.287 270.696 225.518 270.452C225.749 270.21 226.056 270.078 226.37 270.078Z" fill="white" stroke="black"/>
<mask id="path-16-inside-1" fill="white">
<path d="M244.526 269.578H238.147C237.691 269.578 237.254 269.769 236.932 270.108C236.61 270.447 236.429 270.907 236.429 271.386C236.429 271.866 236.61 272.326 236.932 272.665C237.254 273.004 237.691 273.194 238.147 273.194H244.526C244.981 273.194 245.418 273.004 245.74 272.665C246.062 272.326 246.243 271.866 246.243 271.386C246.243 270.907 246.062 270.447 245.74 270.108C245.418 269.769 244.981 269.578 244.526 269.578H244.526Z"/>
</mask>
<path d="M244.526 269.578H238.147C237.691 269.578 237.254 269.769 236.932 270.108C236.61 270.447 236.429 270.907 236.429 271.386C236.429 271.866 236.61 272.326 236.932 272.665C237.254 273.004 237.691 273.194 238.147 273.194H244.526C244.981 273.194 245.418 273.004 245.74 272.665C246.062 272.326 246.243 271.866 246.243 271.386C246.243 270.907 246.062 270.447 245.74 270.108C245.418 269.769 244.981 269.578 244.526 269.578H244.526Z" fill="white"/>
<path d="M236.429 271.386H237.429H236.429ZM238.147 273.194V272.194V273.194ZM244.526 273.194V272.194V273.194ZM246.243 271.386H245.243H246.243ZM244.526 268.578H238.147V270.578H244.526V268.578ZM238.147 268.578C237.409 268.578 236.712 268.887 236.207 269.419L237.657 270.797C237.796 270.65 237.973 270.578 238.147 270.578V268.578ZM236.207 269.419C235.704 269.949 235.429 270.658 235.429 271.386H237.429C237.429 271.156 237.517 270.945 237.657 270.797L236.207 269.419ZM235.429 271.386C235.429 272.115 235.704 272.823 236.207 273.353L237.657 271.976C237.517 271.828 237.429 271.617 237.429 271.386H235.429ZM236.207 273.353C236.712 273.885 237.409 274.194 238.147 274.194V272.194C237.973 272.194 237.796 272.122 237.657 271.976L236.207 273.353ZM238.147 274.194H244.526V272.194H238.147V274.194ZM244.526 274.194C245.263 274.194 245.96 273.885 246.465 273.353L245.015 271.976C244.876 272.122 244.699 272.194 244.526 272.194V274.194ZM246.465 273.353C246.969 272.823 247.243 272.115 247.243 271.386H245.243C245.243 271.617 245.156 271.828 245.015 271.976L246.465 273.353ZM247.243 271.386C247.243 270.658 246.969 269.949 246.465 269.419L245.015 270.797C245.156 270.945 245.243 271.156 245.243 271.386H247.243ZM246.465 269.419C245.96 268.887 245.263 268.578 244.526 268.578V270.578C244.699 270.578 244.876 270.65 245.015 270.797L246.465 269.419ZM244.526 270.578H244.526V268.578H244.526V270.578Z" fill="black" mask="url(#path-16-inside-1)"/>
<path d="M226.37 265.078H232.749C233.063 265.078 233.37 265.21 233.601 265.452C233.832 265.696 233.966 266.031 233.966 266.386C233.966 266.741 233.832 267.077 233.601 267.32C233.37 267.563 233.063 267.694 232.749 267.694H226.37C226.056 267.694 225.749 267.563 225.518 267.32C225.287 267.077 225.153 266.741 225.153 266.386C225.153 266.031 225.287 265.696 225.518 265.452C225.749 265.21 226.056 265.078 226.37 265.078Z" fill="white" stroke="black"/>
<mask id="path-19-inside-2" fill="white">
<path d="M244.526 264.578H238.147C237.691 264.578 237.254 264.769 236.932 265.108C236.61 265.447 236.429 265.907 236.429 266.386C236.429 266.866 236.61 267.326 236.932 267.665C237.254 268.004 237.691 268.194 238.147 268.194H244.526C244.981 268.194 245.418 268.004 245.74 267.665C246.062 267.326 246.243 266.866 246.243 266.386C246.243 265.907 246.062 265.447 245.74 265.108C245.418 264.769 244.981 264.578 244.526 264.578H244.526Z"/>
</mask>
<path d="M244.526 264.578H238.147C237.691 264.578 237.254 264.769 236.932 265.108C236.61 265.447 236.429 265.907 236.429 266.386C236.429 266.866 236.61 267.326 236.932 267.665C237.254 268.004 237.691 268.194 238.147 268.194H244.526C244.981 268.194 245.418 268.004 245.74 267.665C246.062 267.326 246.243 266.866 246.243 266.386C246.243 265.907 246.062 265.447 245.74 265.108C245.418 264.769 244.981 264.578 244.526 264.578H244.526Z" fill="white"/>
<path d="M236.429 266.386H237.429H236.429ZM238.147 268.194V267.194V268.194ZM244.526 268.194V267.194V268.194ZM246.243 266.386H245.243H246.243ZM244.526 263.578H238.147V265.578H244.526V263.578ZM238.147 263.578C237.409 263.578 236.712 263.887 236.207 264.419L237.657 265.797C237.796 265.65 237.973 265.578 238.147 265.578V263.578ZM236.207 264.419C235.704 264.949 235.429 265.658 235.429 266.386H237.429C237.429 266.156 237.517 265.945 237.657 265.797L236.207 264.419ZM235.429 266.386C235.429 267.115 235.704 267.823 236.207 268.353L237.657 266.976C237.517 266.828 237.429 266.617 237.429 266.386H235.429ZM236.207 268.353C236.712 268.885 237.409 269.194 238.147 269.194V267.194C237.973 267.194 237.796 267.122 237.657 266.976L236.207 268.353ZM238.147 269.194H244.526V267.194H238.147V269.194ZM244.526 269.194C245.263 269.194 245.96 268.885 246.465 268.353L245.015 266.976C244.876 267.122 244.699 267.194 244.526 267.194V269.194ZM246.465 268.353C246.969 267.823 247.243 267.115 247.243 266.386H245.243C245.243 266.617 245.156 266.828 245.015 266.976L246.465 268.353ZM247.243 266.386C247.243 265.658 246.969 264.949 246.465 264.419L245.015 265.797C245.156 265.945 245.243 266.156 245.243 266.386H247.243ZM246.465 264.419C245.96 263.887 245.263 263.578 244.526 263.578V265.578C244.699 265.578 244.876 265.65 245.015 265.797L246.465 264.419ZM244.526 265.578H244.526V263.578H244.526V265.578Z" fill="black" mask="url(#path-19-inside-2)"/>
<path d="M422.003 431.905H415.23L412.008 404.402H422.004L422.003 431.905Z" fill="#FFB8B8"/>
<path d="M410.392 429.868H423.455V438.526H402.167C402.167 436.23 403.033 434.027 404.576 432.404C406.118 430.78 408.21 429.868 410.392 429.868Z" fill="#2F2E41"/>
<path d="M455.705 431.905H448.932L445.709 404.402H455.706L455.705 431.905Z" fill="#FFB8B8"/>
<path d="M444.094 429.868H457.157V438.526H435.869C435.869 436.23 436.735 434.027 438.278 432.404C439.82 430.78 441.912 429.868 444.094 429.868Z" fill="#2F2E41"/>
<path d="M388.024 333.548C387.537 332.792 387.213 331.933 387.075 331.032C386.938 330.13 386.989 329.207 387.227 328.329C387.464 327.45 387.882 326.637 388.45 325.947C389.019 325.257 389.724 324.706 390.516 324.334L413.542 257.527L424.872 264.036L398.582 327.879C399.088 329.322 399.073 330.91 398.541 332.342C398.009 333.774 396.996 334.951 395.695 335.65C394.394 336.349 392.894 336.521 391.48 336.133C390.067 335.746 388.837 334.826 388.024 333.548Z" fill="#FFB8B8"/>
<path d="M452.245 346.102C451.493 345.647 450.844 345.025 450.344 344.278C449.845 343.531 449.507 342.678 449.355 341.779C449.202 340.879 449.239 339.956 449.462 339.073C449.685 338.191 450.09 337.37 450.647 336.67L443.514 266L456.408 266.62L459.372 336.133C460.428 337.196 461.076 338.63 461.195 340.163C461.313 341.696 460.893 343.221 460.015 344.45C459.136 345.678 457.86 346.525 456.428 346.83C454.996 347.134 453.508 346.875 452.245 346.102V346.102Z" fill="#FFB8B8"/>
<path d="M431.676 245.153C439.17 245.153 445.245 238.757 445.245 230.868C445.245 222.979 439.17 216.583 431.676 216.583C424.181 216.583 418.106 222.979 418.106 230.868C418.106 238.757 424.181 245.153 431.676 245.153Z" fill="#FFB8B8"/>
<path d="M452.159 330.029H411.248L411.298 329.694C411.371 329.193 418.589 279.421 413.265 263.138C412.731 261.538 412.778 259.786 413.397 258.22C414.016 256.654 415.164 255.385 416.619 254.656H416.619C424.228 250.884 438.833 246.239 451.161 257.511C452.975 259.197 454.391 261.304 455.298 263.666C456.205 266.027 456.578 268.579 456.387 271.118L452.159 330.029Z" fill="#CCCCCC"/>
<path d="M419.106 286.776L400.688 282.843L409.321 261.306C409.838 259.22 411.119 257.435 412.884 256.342C414.65 255.25 416.755 254.939 418.737 255.477C420.72 256.016 422.419 257.361 423.461 259.217C424.503 261.072 424.804 263.287 424.297 265.376L419.106 286.776Z" fill="#CCCCCC"/>
<path d="M442.695 294.08L441.588 267.36C440.748 262.337 443.479 257.589 447.68 256.813C451.882 256.04 455.985 259.523 456.829 264.583L460.991 289.55L442.695 294.08Z" fill="#CCCCCC"/>
<path d="M450.798 326.83C457.38 353.221 458.098 386.776 456.323 423.376L447.483 422.213L431.46 352.421L422.621 423.376L412.676 422.795C409.705 384.391 406.812 351.423 411.571 329.738L450.798 326.83Z" fill="#2F2E41"/>
<path d="M440.617 241.908C438.086 244.746 433.384 243.223 433.054 239.345C433.028 239.043 433.03 238.74 433.06 238.44C433.23 236.722 434.173 235.162 433.947 233.349C433.896 232.897 433.736 232.467 433.483 232.099C431.466 229.255 426.73 233.371 424.826 230.796C423.659 229.218 425.031 226.733 424.135 224.968C422.953 222.64 419.451 223.789 417.255 222.513C414.811 221.095 414.957 217.148 416.566 214.747C418.528 211.82 421.967 210.258 425.363 210.033C428.76 209.808 432.133 210.774 435.304 212.075C438.907 213.553 442.48 215.596 444.697 218.931C447.393 222.986 447.653 228.439 446.304 233.181C445.484 236.066 442.684 239.59 440.617 241.908Z" fill="#2F2E41"/>
<path d="M100.813 80.6691C118.696 80.6691 133.194 63.7194 133.194 42.811C133.194 21.9026 118.696 4.95297 100.813 4.95297C82.929 4.95297 68.4314 21.9026 68.4314 42.811C68.4314 63.7194 82.929 80.6691 100.813 80.6691Z" fill="#85BB65" stroke="#282828" stroke-width="4.05" stroke-miterlimit="10"/>
<path d="M91.3814 78.7161C109.265 78.7161 123.763 61.7665 123.763 40.858C123.763 19.9496 109.265 3 91.3814 3C73.4977 3 59 19.9496 59 40.858C59 61.7665 73.4977 78.7161 91.3814 78.7161Z" fill="#85BB65" stroke="#282828" stroke-width="4.05" stroke-miterlimit="10"/>
<path d="M91.1227 40.2013C89.7968 39.9267 88.5588 39.2391 87.5391 38.2111C86.5194 37.183 85.7557 35.8524 85.3284 34.3596C84.9011 32.8667 84.8261 31.2667 85.1112 29.7282C85.3963 28.1896 86.031 26.7694 86.9485 25.6172C87.866 24.4649 89.0323 23.6233 90.3245 23.1808C91.6168 22.7384 92.9872 22.7116 94.2914 23.1032C95.5955 23.4948 96.7852 24.2903 97.7352 25.406C98.6852 26.5217 99.3602 27.9162 99.6893 29.4427" stroke="#282828" stroke-width="4.05" stroke-miterlimit="10"/>
<path d="M91.1228 40.2013C92.4803 40.4812 93.7454 41.1938 94.7787 42.2606C95.8119 43.3274 96.5732 44.707 96.9787 46.2474C97.3841 47.7877 97.4179 49.429 97.0765 50.9904C96.735 52.5518 96.0315 53.9727 95.0435 55.0965C94.0554 56.2203 92.8211 57.0034 91.4767 57.3595C90.1322 57.7155 88.7299 57.6308 87.424 57.1145C86.1182 56.5983 84.9595 55.6706 84.0758 54.4337C83.1922 53.1967 82.6177 51.6986 82.4158 50.1044" stroke="#282828" stroke-width="4.05" stroke-miterlimit="10"/>
<path d="M93.7615 24.0246L94.678 17.9583" stroke="#282828" stroke-width="4.05" stroke-miterlimit="10"/>
<path d="M87.8855 62.9196L88.802 56.8533" stroke="#282828" stroke-width="4.05" stroke-miterlimit="10"/>
<path d="M347.5 199C379.809 199 406 168.555 406 131C406 93.4446 379.809 63 347.5 63C315.191 63 289 93.4446 289 131C289 168.555 315.191 199 347.5 199Z" fill="#FED798"/>
<path d="M345 199C377.033 199 403 169.003 403 132C403 94.9969 377.033 65 345 65C312.967 65 287 94.9969 287 132C287 169.003 312.967 199 345 199Z" stroke="#282828" stroke-width="4.05" stroke-miterlimit="10"/>
<path d="M331.041 159.853C350.348 159.853 366 143.544 366 123.427C366 103.309 350.348 87 331.041 87C311.733 87 296.081 103.309 296.081 123.427C296.081 143.544 311.733 159.853 331.041 159.853Z" fill="white" stroke="#282828" stroke-width="4.05" stroke-miterlimit="10"/>
<path d="M321.959 165C341.267 165 356.919 148.691 356.919 128.573C356.919 108.456 341.267 92.1468 321.959 92.1468C302.652 92.1468 287 108.456 287 128.573C287 148.691 302.652 165 321.959 165Z" fill="white" stroke="#282828" stroke-width="4.05" stroke-miterlimit="10"/>
<path d="M321.784 145.452C330.638 145.452 337.815 137.973 337.815 128.748C337.815 119.523 330.638 112.044 321.784 112.044C312.93 112.044 305.752 119.523 305.752 128.748C305.752 137.973 312.93 145.452 321.784 145.452Z" stroke="#282828" stroke-width="4.05" stroke-miterlimit="10"/>
<path d="M327.729 106.822L310.317 148.728" stroke="#282828" stroke-width="4.05" stroke-miterlimit="10"/>
<path d="M333.139 109.2L315.735 151.106" stroke="#282828" stroke-width="4.05" stroke-miterlimit="10"/>
<path d="M150.068 339C157.669 342.978 163.684 350.199 166.882 359.189C170.08 368.178 170.221 378.256 167.275 387.363C164.329 396.469 158.519 403.916 151.033 408.182C143.547 412.447 134.95 413.208 127 410.309" stroke="#282828" stroke-width="2.36" stroke-miterlimit="10" stroke-dasharray="6.13 4.38"/>
<path d="M120.452 414.572C141.136 414.572 157.904 394.968 157.904 370.786C157.904 346.604 141.136 327 120.452 327C99.7677 327 83 346.604 83 370.786C83 394.968 99.7677 414.572 120.452 414.572Z" fill="#003399" stroke="#282828" stroke-width="4.05" stroke-miterlimit="10"/>
<g filter="url(#filter0_d)">
<path d="M133.047 360.148C133.047 360.148 128.73 352.458 121.745 352.458C114.76 352.458 106.963 358.593 106.963 371.088C106.963 383.584 115.492 388.985 120.94 388.985C123.391 388.929 125.797 388.196 127.959 386.844C130.121 385.492 131.979 383.561 133.379 381.208" stroke="#FFCC00" stroke-width="4.05" stroke-miterlimit="10"/>
</g>
<g filter="url(#filter1_d)">
<path d="M101.803 365.921H118.56" stroke="#FFCC00" stroke-width="4.05" stroke-miterlimit="10"/>
</g>
<g filter="url(#filter2_d)">
<path d="M101.803 375.893H118.56" stroke="#FFCC00" stroke-width="4.05" stroke-miterlimit="10"/>
</g>
<defs>
<filter id="filter0_d" x="100.938" y="350.433" width="38.1816" height="48.5773" filterUnits="userSpaceOnUse" color-interpolation-filters="sRGB">
<feFlood flood-opacity="0" result="BackgroundImageFix"/>
<feColorMatrix in="SourceAlpha" type="matrix" values="0 0 0 0 0 0 0 0 0 0 0 0 0 0 0 0 0 0 127 0"/>
<feOffset dy="4"/>
<feGaussianBlur stdDeviation="2"/>
<feColorMatrix type="matrix" values="0 0 0 0 0 0 0 0 0 0 0 0 0 0 0 0 0 0 0.25 0"/>
<feBlend mode="normal" in2="BackgroundImageFix" result="effect1_dropShadow"/>
<feBlend mode="normal" in="SourceGraphic" in2="effect1_dropShadow" result="shape"/>
</filter>
<filter id="filter1_d" x="97.8035" y="363.896" width="24.7561" height="12.05" filterUnits="userSpaceOnUse" color-interpolation-filters="sRGB">
<feFlood flood-opacity="0" result="BackgroundImageFix"/>
<feColorMatrix in="SourceAlpha" type="matrix" values="0 0 0 0 0 0 0 0 0 0 0 0 0 0 0 0 0 0 127 0"/>
<feOffset dy="4"/>
<feGaussianBlur stdDeviation="2"/>
<feColorMatrix type="matrix" values="0 0 0 0 0 0 0 0 0 0 0 0 0 0 0 0 0 0 0.25 0"/>
<feBlend mode="normal" in2="BackgroundImageFix" result="effect1_dropShadow"/>
<feBlend mode="normal" in="SourceGraphic" in2="effect1_dropShadow" result="shape"/>
</filter>
<filter id="filter2_d" x="97.8035" y="373.868" width="24.7561" height="12.05" filterUnits="userSpaceOnUse" color-interpolation-filters="sRGB">
<feFlood flood-opacity="0" result="BackgroundImageFix"/>
<feColorMatrix in="SourceAlpha" type="matrix" values="0 0 0 0 0 0 0 0 0 0 0 0 0 0 0 0 0 0 127 0"/>
<feOffset dy="4"/>
<feGaussianBlur stdDeviation="2"/>
<feColorMatrix type="matrix" values="0 0 0 0 0 0 0 0 0 0 0 0 0 0 0 0 0 0 0.25 0"/>
<feBlend mode="normal" in2="BackgroundImageFix" result="effect1_dropShadow"/>
<feBlend mode="normal" in="SourceGraphic" in2="effect1_dropShadow" result="shape"/>
</filter>
</defs>
</svg>
